<svg width="250" height="67" viewBox="0 0 250 67" fill="none" xmlns="http://www.w3.org/2000/svg">
<path d="M202.322 4.00202C204.733 4.00207 206.688 5.90923 206.688 8.26116C206.688 8.27515 206.689 8.35695 206.73 14.2825C206.772 20.2575 206.856 32.2229 206.83 38.7611C206.815 42.4557 206.705 45.3233 206.594 47.9137C206.482 50.5118 206.371 52.7665 206.344 55.3585C206.338 55.9256 206.964 56.2372 207.419 55.9041C207.525 55.8261 207.634 55.7457 207.745 55.6628C209.219 54.5632 211.094 53.0967 212.867 51.9001C214.585 50.7405 216.769 49.4327 219.032 48.9038C223.182 47.9341 227.216 49.6109 230 51.0937C232.75 52.559 235.886 54.7968 237.381 55.723C237.579 55.8452 238.098 56.0284 239.032 56.0416C239.525 56.0485 240.013 56.0016 240.439 55.9369C240.486 55.9298 240.51 55.9263 240.538 55.9199C240.644 55.8964 240.776 55.8364 240.864 55.7721C240.888 55.7547 240.9 55.7441 240.925 55.723C241.077 55.595 241.212 55.4758 241.394 55.2925C241.591 55.0949 241.87 54.7958 242.292 54.3052C243.844 52.5051 246.597 52.2727 248.443 53.7858C250.288 55.2989 250.528 57.9838 248.977 59.7841C247.929 61.0005 247.3 61.6062 246.635 62.1663C246.104 62.6142 245.395 63.1739 244.56 63.6156L244.298 63.7552C244.21 63.8016 244.167 63.8248 244.121 63.8429C244.075 63.8609 244.027 63.8737 243.932 63.8992L243.64 63.9773C242.437 64.3003 240.736 64.5823 238.91 64.557C237.13 64.5322 234.791 64.2076 232.7 62.9125C230.242 61.3901 228.34 59.9163 225.813 58.5701C223.319 57.2416 221.831 57.0074 221.064 57.1867C220.486 57.3223 219.434 57.8235 217.835 58.903C216.289 59.9464 214.762 61.1525 213.049 62.4303C211.513 63.5756 209.643 64.928 207.89 65.6993C207.023 66.0808 205.703 66.5446 204.198 66.4512C202.386 66.3386 200.73 65.4388 199.687 63.8539C199.666 63.8232 199.382 63.4099 199.147 62.99C198.867 62.4895 198.589 61.8853 198.349 61.1417C197.872 59.6691 197.589 57.7861 197.615 55.2724C197.644 52.5125 197.762 50.0951 197.871 47.5549C197.981 45.0067 198.085 42.2624 198.099 38.7266C198.124 32.245 198.041 20.3358 197.999 14.3399C197.958 8.39325 197.956 8.31299 197.956 8.26116C197.956 5.90952 199.911 4.00255 202.322 4.00202Z" fill="currentColor"/>
<path d="M182.057 32.0608C184.463 32.2184 186.288 34.3256 186.133 36.7666C186.132 36.815 186.088 38.4167 186.022 41.5531C185.957 44.6559 185.875 49.1146 185.789 54.6382L185.806 57.3803C185.847 59.7119 185.945 60.8907 186.008 61.7055C186.194 64.1437 184.395 66.2734 181.992 66.4632C179.589 66.6518 177.489 64.8295 177.302 62.3918C177.205 61.1248 177.049 59.151 177.058 54.618C177.056 54.5988 177.056 54.5766 177.058 54.5574C177.229 43.5236 177.4 36.5376 177.421 36.1957C177.577 33.7551 179.651 31.9038 182.057 32.0608Z" fill="currentColor"/>
<path fill-rule="evenodd" clip-rule="evenodd" d="M5.36997 0.0409454C6.13225 0.14444 7.27665 0.447222 8.93676 0.943156C10.7143 1.47418 13.3769 2.31847 17.349 3.64392C24.0315 5.87383 35.713 9.56275 42.77 11.8902C46.2024 13.0222 48.3777 13.7695 49.7895 14.3059C50.9308 14.7396 51.9245 15.1591 52.7681 15.7371L53.1222 15.9957L53.4733 16.2896C53.9036 16.6797 54.5245 17.3622 54.8924 18.3644C55.5442 20.1425 55.0493 21.8139 54.2663 22.9195C53.6532 23.7849 52.8811 24.3083 52.4726 24.5653C51.9891 24.8693 51.4568 25.1363 50.9482 25.3734C50.6332 25.5202 50.314 25.6643 49.9906 25.8059C47.7488 26.7873 46.6279 27.278 46.6298 27.8715C46.6318 28.4649 47.7641 28.9517 50.0287 29.9253C51.2651 30.4568 52.3586 30.9858 53.3387 31.4656C56.7153 33.1185 59.1603 35.0296 60.9931 37.111C62.8156 39.1813 63.8846 41.2602 64.6652 42.9739C67.1194 48.363 65.1826 53.0924 63.1964 55.8224C61.7455 57.8165 59.2469 59.1663 57.3356 60.0513C55.183 61.048 52.6954 61.9244 50.3747 62.6316C48.0501 63.3399 45.0344 63.4853 42.0239 63.4691C38.8911 63.4523 35.2088 63.2453 31.3148 63.0019C28.0803 62.7996 25.2733 62.3847 22.8247 61.8694C21.9893 61.6936 21.5716 61.6057 21.3094 61.7199C21.0471 61.8341 20.7269 62.3636 20.0864 63.4226C19.4906 64.4077 18.522 65.1652 17.3197 65.4616C14.9096 66.0555 12.4753 64.5729 11.8832 62.1526C11.6258 61.0985 11.4615 60.2605 11.3138 58.7721C11.2808 58.4399 11.0654 58.1461 10.7509 58.0382L10.5863 57.9826C10.5252 57.9619 10.4947 57.9516 10.465 57.9391C10.4353 57.9266 10.4066 57.912 10.3491 57.8829L10.192 57.8031C9.41979 57.4146 8.49721 56.87 7.66103 56.0545C6.83794 55.2513 6.30306 54.3585 6.06929 53.9856C4.74829 51.8763 5.377 49.0893 7.47669 47.7612C7.78018 47.5693 8.09779 47.4188 8.42309 47.308C9.64252 46.8927 10.2522 46.6851 10.4216 46.4355C10.5909 46.186 10.5705 45.7533 10.5296 44.8879C10.4252 42.6754 10.3137 40.2643 10.2009 37.7837C10.1979 37.7165 10.1334 37.6711 10.0691 37.69C8.66277 38.1025 7.26078 38.5392 6.476 38.7538C6.26066 38.8127 6.0166 38.8758 5.77961 38.9272C5.66192 38.9527 5.11907 39.0769 4.49803 39.0682C4.30807 39.0655 3.9773 39.0504 3.58219 38.9654C3.23169 38.8898 2.48403 38.6867 1.73004 38.0926C0.8326 37.3847 0.116036 36.2557 0.0124804 34.8628C-0.0750658 33.6767 0.319084 32.7878 0.536233 32.3795C0.946258 31.6092 1.48616 31.1447 1.59252 31.0512C1.79531 30.8728 1.98442 30.7364 2.10164 30.6545C3.2098 29.8804 5.07793 28.8428 8.41659 27.7049C9.05878 27.486 9.37987 27.3766 9.5491 27.1281C9.71832 26.8796 9.70383 26.5479 9.67485 25.8844C9.52243 22.3949 9.38269 19.201 9.28203 16.7128L9.2791 16.6804C9.21042 14.6104 9.16436 12.9957 9.13317 11.7362C9.11766 11.1098 9.1099 10.7966 8.93584 10.5651C8.76177 10.3335 8.4665 10.2411 7.87595 10.0562C7.306 9.87774 6.80792 9.72474 6.37359 9.59499C4.63314 9.07508 4.14024 8.98353 4.16739 8.98667C1.70823 8.65248 -0.0182179 6.37859 0.313858 3.90841C0.647199 1.43964 2.91151 -0.291769 5.36997 0.0409454ZM35.2619 35.4535C30.4829 35.0402 24.557 34.6962 21.2025 35.1508C21.0177 35.1759 20.8328 35.2024 20.6477 35.2302C19.917 35.3401 19.5517 35.395 19.3322 35.663C19.1128 35.931 19.13 36.3107 19.1645 37.0703C19.3774 41.7618 19.5845 46.2238 19.7512 49.5804C19.767 49.8983 19.7831 50.2053 19.799 50.5016C19.8313 51.1042 19.8474 51.4055 20.0231 51.6299C20.1987 51.8543 20.4794 51.9391 21.0407 52.1087C23.8795 52.9661 27.2945 53.7052 31.8736 53.9915C35.7916 54.2364 39.2298 54.4258 42.0707 54.4411C45.0338 54.457 46.8514 54.2697 47.7647 53.9915C49.8755 53.3482 51.9357 52.613 53.5728 51.855C54.7285 51.3198 55.376 50.907 55.6926 50.6828C55.8141 50.5967 55.8748 50.5537 55.9342 50.4919C55.9935 50.43 56.0342 50.3672 56.1157 50.2416C56.4408 49.7403 56.6703 49.2114 56.768 48.6987C56.8704 48.1599 56.855 47.5253 56.4929 46.7297C55.8752 45.3737 55.2405 44.2049 54.2604 43.0915C53.2897 41.9891 51.8269 40.7705 49.4003 39.5825C46.1051 37.9694 42.0273 36.0387 35.2619 35.4535ZM18.2619 16.3484L18.5403 22.822C18.5835 23.8256 18.6051 24.3274 18.939 24.5838C19.273 24.8402 19.7616 24.7293 20.7387 24.5076C23.8485 23.8018 27.036 23.095 29.5387 22.5169C30.8291 22.2188 32.0677 21.9252 33.2567 21.633C35.5564 21.0679 36.7063 20.7854 36.7306 20.103C36.7549 19.4205 35.6195 19.0536 33.3488 18.3197C29.2452 16.9934 24.6297 15.5109 20.6007 14.2032C19.4928 13.8437 18.9388 13.6639 18.5659 13.9459C18.193 14.2279 18.2119 14.8108 18.2497 15.9767C18.2537 16.0988 18.2577 16.2227 18.2619 16.3484Z" fill="currentColor"/>
<path fill-rule="evenodd" clip-rule="evenodd" d="M67.4414 5.76669C75.5598 5.43994 82.6819 6.38601 86.1745 7.53136C87.7616 8.05191 89.198 8.76011 90.4606 9.79486C91.7393 10.843 92.6437 12.0667 93.354 13.3444C94.9002 16.126 94.5541 19.316 94.1839 21.1902C93.7713 23.2783 93.0289 25.1799 92.4814 26.2882C91.5827 28.107 90.1398 29.4378 88.886 30.3798C88.8262 30.4247 88.7661 30.4693 88.7055 30.5135C87.7998 31.1761 87.347 31.5074 87.3188 31.9219C87.2906 32.3364 87.6743 32.7082 88.4416 33.4516C88.549 33.5557 88.6574 33.6611 88.7666 33.7678C91.4951 36.4338 94.6025 40.2908 97.4184 43.8483C100.328 47.5244 102.991 51.1905 104.24 52.8822C104.55 53.3023 104.769 53.5984 104.916 53.7933C104.962 53.8538 105 53.9041 105.03 53.9433C105.044 53.9608 105.057 53.9795 105.07 53.9952L105.092 54.024L105.09 54.0211C105.115 54.0538 105.126 54.0701 105.126 54.0701L105.192 54.1538C105.2 54.1645 105.225 54.1947 105.252 54.2316C105.258 54.2406 105.305 54.3052 105.36 54.3873C105.376 54.4124 105.405 54.4593 105.439 54.5142C105.465 54.5554 105.537 54.6739 105.618 54.8314C105.662 54.9198 105.767 55.1529 105.826 55.2985C105.909 55.5385 106.07 56.2726 106.126 56.873C106.135 56.9665 106.139 57.0132 106.132 57.095C106.124 57.1768 106.114 57.2138 106.093 57.2878C105.673 58.7906 103.66 60.9809 101.934 61.5109C101.827 61.5438 101.773 61.5602 101.668 61.5659C101.563 61.5716 101.501 61.5598 101.378 61.5361C100.616 61.3897 99.7274 61.0483 99.4619 60.8895C99.0785 60.6381 98.8159 60.3692 98.8054 60.3589C98.7291 60.2846 98.6705 60.224 98.6434 60.1946C98.5871 60.1338 98.5427 60.0834 98.5268 60.0648C98.4906 60.0225 98.4618 59.9864 98.4529 59.9754C98.4301 59.9474 98.4104 59.9229 98.4018 59.912C98.3861 59.892 98.3671 59.8636 98.3421 59.8313L98.325 59.8111C98.2789 59.7523 98.1941 59.6467 98.0891 59.5199C97.9627 59.367 97.8489 59.2055 97.7452 59.0412C97.6263 58.8815 97.4876 58.6998 97.3331 58.4905C96.0361 56.733 93.4886 53.2229 90.6993 49.6989C87.816 46.0561 85.0658 42.6653 82.8178 40.4689C80.7935 38.491 79.1608 37.0271 78.0031 36.0429C77.6177 35.7153 77.0367 36.0008 77.0367 36.5109V57.3659C77.0367 60.0779 75.0821 62.2764 72.6711 62.2764C70.2601 62.2763 68.3055 60.0779 68.3054 57.3659V15.438C68.3054 15.1446 68.0658 14.9071 67.7768 14.9187C65.4609 15.0119 63.8992 15.0943 62.8938 15.1523C62.3908 15.1813 62.0239 15.205 61.7598 15.2215C61.5961 15.2317 61.2578 15.2532 61.0293 15.2532C58.6185 15.2531 56.664 13.2033 56.6637 10.6743C56.6639 8.14521 58.6185 6.09263 61.0293 6.09252C60.9207 6.09253 60.8796 6.09772 61.2396 6.07522C61.5003 6.05893 61.8875 6.0335 62.4135 6.00313C63.4682 5.94225 65.0787 5.86178 67.4414 5.76669ZM77.0367 25.0447C77.0367 25.6107 77.5975 26.0033 78.1139 25.7893L78.1367 25.7807C79.2363 25.332 80.1169 24.9806 81.0443 24.5898C82.1728 24.0072 83.1029 23.4564 83.8012 22.9318C84.2702 22.5795 84.5184 22.3261 84.6373 22.1889C84.667 22.1547 84.6818 22.1376 84.7157 22.0851C84.7496 22.0326 84.7631 22.0032 84.7903 21.9444C85.0347 21.4151 85.4251 20.3895 85.6345 19.3304C85.7453 18.7689 85.7781 18.3277 85.7652 18.0271C85.7633 17.9829 85.7678 18.0881 85.7678 18.0881C85.7618 17.98 85.6955 17.7656 85.6395 17.6734C85.6395 17.6734 85.6636 17.7118 85.6528 17.6946C85.4365 17.3477 85.2588 17.1539 85.0859 17.0121C84.8564 16.824 84.4337 16.5578 83.5682 16.274C82.6415 15.9702 81.0419 15.6321 78.9406 15.3626C78.0657 15.2504 77.6282 15.1943 77.3325 15.4588C77.0367 15.7233 77.0367 16.1806 77.0367 17.0951V25.0447Z" fill="currentColor"/>
<path d="M142.473 6.08884C146.596 4.84665 149.984 4.47281 152.842 4.927C155.848 5.40524 157.966 6.75224 159.515 8.3366C160.239 9.07661 160.799 9.82622 161.215 10.4121C161.394 10.6649 161.531 10.8596 161.644 11.0214C161.813 11.263 161.897 11.3837 162.006 11.4669C162.115 11.55 162.31 11.619 162.701 11.7568C164.393 12.3541 165.622 13.9895 165.649 15.9323C165.683 18.4074 163.755 20.4438 161.346 20.4804C158.179 20.527 156.305 18.5783 155.317 17.3101C154.9 16.7739 154.397 16.0284 154.161 15.6958C153.845 15.2512 153.599 14.9404 153.356 14.6916C152.971 14.2979 152.494 13.9441 151.506 13.7867C150.368 13.606 148.354 13.6605 144.932 14.6916C142.876 15.311 141.911 16.6796 141.621 18.2384C141.303 19.9462 141.789 22.1105 143.329 23.8783C144.205 24.8833 146.164 25.5803 149.4 25.837C150.912 25.9569 152.269 25.9617 153.689 26.0093C154.34 26.0311 155.063 26.0657 155.724 26.1465C156.185 26.203 157.072 26.3266 157.966 26.7361L158.217 26.8622C158.279 26.8929 158.309 26.9082 158.341 26.9211C158.348 26.924 158.355 26.9268 158.362 26.9295C158.394 26.9414 158.427 26.9509 158.492 26.9697C159.308 27.2611 163.261 28.9334 165.885 32.2592C169.274 36.556 170.749 43.0902 168.491 52.7898C167.199 58.3374 162.676 63.2032 156.068 62.8989C154.257 62.8153 152.4 62.6425 150.491 62.026C148.529 61.392 146.749 60.3687 144.898 58.8763C140.974 55.7124 140.046 51.3504 139.603 48.1892C139.331 46.2508 139.301 45.4227 139.06 43.9447C138.863 42.7369 138.629 41.9636 138.344 41.4254C137.19 39.2512 137.969 36.5271 140.086 35.3419C142.203 34.1573 144.855 34.9601 146.009 37.1342C146.972 38.95 147.41 40.8544 147.672 42.4617C147.89 43.7995 148.109 45.9315 148.246 46.9106C148.621 49.5847 149.153 50.904 150.289 51.8206C151.497 52.794 152.355 53.2285 153.112 53.4729C153.921 53.734 154.871 53.8666 156.46 53.9399C158.01 54.0109 159.461 53.0118 159.999 50.7055C161.847 42.7668 160.262 39.3781 159.1 37.9049C157.743 36.1842 156.574 35.9813 154.916 35.1828C154.764 35.1098 154.688 35.0732 154.609 35.0523C154.531 35.0315 154.462 35.0267 154.326 35.0172C154.089 35.0008 153.788 34.9869 153.405 34.974C152.279 34.9363 150.499 34.9188 148.729 34.7785C145.399 34.5143 140.192 33.7274 136.82 29.8567C133.566 26.1197 132.187 21.1539 133.043 16.5541C133.926 11.8051 137.172 7.68675 142.473 6.08884Z" fill="currentColor"/>
<path fill-rule="evenodd" clip-rule="evenodd" d="M116.021 4.20675C117.65 3.86187 118.921 4.4862 119.534 4.88147C120.16 5.2858 120.619 5.77335 120.907 6.1127C121.497 6.8107 122.076 7.73084 122.666 8.77412C125.026 12.9518 129.435 22.7534 132.079 29.2379C136.052 38.9804 137.023 45.0729 137.747 49.0645C138.139 50.9187 138.312 52.0844 138.386 53.3291C138.394 53.3876 138.398 53.4169 138.403 53.4422C138.409 53.474 138.413 53.4909 138.422 53.522C138.429 53.5468 138.443 53.5845 138.469 53.6599C139.254 55.8817 138.171 58.3636 135.99 59.2661C133.754 60.1906 131.209 59.1064 130.306 56.844C129.923 55.8842 129.766 54.9986 129.692 54.2114L129.683 54.1134L129.678 54.0182C129.642 53.3255 129.562 52.6237 129.189 50.8695L129.175 50.8032L129.166 50.7398C128.94 49.4965 128.694 48.0931 128.347 46.4597C128.306 46.2665 128.286 46.1699 128.239 46.0731C128.192 45.9762 128.136 45.9081 128.024 45.772C127.789 45.487 127.424 45.0755 126.881 44.5433C125.827 43.5109 124.284 42.2046 122.189 40.7179C122.124 40.6717 122.092 40.6486 122.056 40.628C122.02 40.6074 121.984 40.5909 121.912 40.5578C121.23 40.2471 120.565 39.9576 119.922 39.6896C118.955 39.2866 118.471 39.0851 118.092 39.324C117.712 39.5628 117.675 40.1032 117.6 41.1839C117.384 44.3217 117.189 47.191 117.044 49.3442C116.619 55.6538 116.615 55.71 116.612 55.7598C116.461 58.2008 114.389 60.065 111.982 59.9235C109.575 59.7818 107.744 57.6876 107.895 55.2466C107.9 55.163 107.909 55.0662 108.333 48.7819C108.495 46.3705 108.72 43.0331 108.971 39.4148C109.011 38.8278 109.032 38.5344 108.933 38.3243C108.835 38.1143 108.498 37.8729 107.823 37.3901C107.469 37.1363 107.147 36.8236 106.872 36.4523C105.427 34.5009 105.822 31.7206 107.753 30.2471C108.074 30.0024 108.406 29.7761 108.753 29.5733C109.254 29.2795 109.505 29.1326 109.62 28.9471C109.735 28.7616 109.755 28.5103 109.793 28.0078C109.946 25.9908 110.095 24.1013 110.234 22.4618C111.047 12.9017 111.879 10.3427 112.141 8.98173C112.158 8.892 112.158 8.88722 112.201 8.64437C112.229 8.48192 112.281 8.18075 112.368 7.85719C112.444 7.57587 112.621 6.97716 113.011 6.34914C113.413 5.70133 114.344 4.5622 116.021 4.20675ZM118.937 23.1827C118.807 24.7097 118.667 26.4602 118.523 28.3314C118.475 28.9672 118.45 29.2851 118.598 29.5297C118.608 29.547 118.619 29.563 118.63 29.5795C118.793 29.8136 119.075 29.9109 119.638 30.1057C121.323 30.6891 122.166 30.9808 122.55 30.6045C122.575 30.5797 122.597 30.5552 122.62 30.5276C122.957 30.108 122.619 29.3266 121.944 27.7636C121.268 26.1975 120.558 24.5895 119.851 23.0242C119.646 22.5689 118.979 22.6837 118.937 23.1827Z" fill="currentColor"/>
<path d="M172.527 1.87116C173.602 1.85329 174.684 2.09705 174.937 2.1422C178.165 2.71885 180.185 5.36428 181.653 7.51983C182.127 8.21489 182.527 8.90465 182.872 9.55793C183.004 9.80795 183.354 9.82278 183.509 9.58726C184.066 8.7453 184.893 7.65115 186.042 6.92583C187.897 5.75486 190.17 5.95982 191.459 6.16172C192.475 6.32086 193.475 6.88261 194.097 7.92351C194.635 8.82539 194.692 9.76681 194.665 10.3889C194.613 11.6132 194.16 12.9281 193.704 14.0191C192.743 16.322 191.141 19.093 189.725 21.395C189.543 21.692 189.333 21.9673 189.106 22.2225C186.942 24.6475 185.792 25.8587 185.363 26.4093C184.951 26.9934 184.294 27.6568 183.308 27.9519C182.669 28.1429 181.93 28.1614 181.199 27.9058C180.482 27.6549 179.946 27.2016 179.573 26.738C177.798 24.528 175.376 20.7562 172.473 17.7445C168.759 13.8913 168.021 10.5633 167.528 8.41369C167.41 7.90298 167.308 7.21088 167.351 6.46449C167.393 5.75077 167.589 4.65356 168.394 3.70503L168.645 3.43398C169.899 2.15275 171.471 1.88888 172.527 1.87116Z" fill="currentColor"/>
</svg>
