<svg width="26" height="26" viewBox="0 0 26 26" fill="none" xmlns="http://www.w3.org/2000/svg">
<path d="M20.3186 2.01296C20.6214 1.9825 21.0625 1.99249 21.5404 2.1908C21.8441 2.31701 22.1048 2.47972 22.3305 2.66301C23.1048 3.13162 23.6249 3.99412 23.6508 4.98519C23.6615 5.03481 23.674 5.08168 23.6823 5.12624C23.7515 5.49938 23.7823 5.87845 23.791 6.24032C23.7988 6.53006 23.7892 6.80879 23.7747 7.06515C23.7728 7.10136 23.7729 7.13722 23.7707 7.17247C23.8425 8.2133 23.8063 8.99286 23.8316 9.42209C23.8976 10.5327 23.9207 11.5029 23.92 12.242C23.9197 12.4844 23.9167 12.7454 23.9088 12.9994C23.9167 13.2541 23.9197 13.5158 23.92 13.7588C23.9207 14.498 23.8976 15.4681 23.8316 16.5788C23.8064 17.008 23.8425 17.7876 23.7707 18.8284C23.7729 18.8633 23.7728 18.8988 23.7747 18.9347C23.7892 19.191 23.7988 19.4697 23.791 19.7595C23.7824 20.1217 23.7515 20.5011 23.6823 20.8746C23.6741 20.9189 23.6614 20.9653 23.6508 21.0146C23.6253 22.0049 23.1055 22.8656 22.3326 23.3348C22.1062 23.519 21.8453 23.6833 21.5404 23.81C21.0624 24.0084 20.6214 24.0173 20.3186 23.9869C19.6869 24.0178 18.9552 23.9784 18.2 23.9787C17.3871 23.979 15.6925 24.0007 15.08 23.9787C10.92 23.9787 7.27997 23.9787 7.27997 23.9787C7.27997 23.9787 6.49668 24.024 5.72708 23.9807C5.42391 24.0169 4.96255 24.0186 4.45958 23.81C4.15522 23.6836 3.89343 23.5205 3.6674 23.3368C2.89183 22.8668 2.36864 22.002 2.34505 21.0085C2.33504 20.9616 2.32448 20.917 2.31661 20.8746C2.24732 20.5008 2.21553 20.121 2.20693 19.7585C2.19915 19.4676 2.2086 19.1877 2.22318 18.9306C2.22506 18.8961 2.22616 18.862 2.22826 18.8284C2.15644 17.7876 2.19258 17.008 2.16732 16.5788C2.10129 15.4681 2.07924 14.498 2.07997 13.7588C2.08022 13.5158 2.08251 13.2541 2.09013 12.9994C2.08255 12.7454 2.08022 12.4844 2.07997 12.242C2.07924 11.5029 2.10129 10.5327 2.16732 9.42209C2.19259 8.99286 2.15643 8.2133 2.22826 7.17247C2.22614 7.13852 2.22508 7.10407 2.22318 7.06924C2.20862 6.81208 2.19912 6.53223 2.20693 6.24134C2.21556 5.87916 2.24739 5.49973 2.31661 5.12624C2.32453 5.08363 2.33496 5.03857 2.34505 4.99133C2.36897 3.99701 2.89257 3.13042 3.66943 2.66096C3.89485 2.47814 4.15642 2.31674 4.45958 2.1908C4.9625 1.98221 5.4239 1.98293 5.72708 2.01909C6.49758 1.97579 7.27997 2.02216 7.27997 2.02216C7.27997 2.02216 10.92 2.02211 15.08 2.02216C15.6925 2.00011 17.3871 2.02186 18.2 2.02216C18.9552 2.02243 19.6869 1.98205 20.3186 2.01296Z" fill="#009440"/>
<path d="M14.3234 7.89557C14.8485 7.89557 16.6584 9.28987 17.1061 9.75259C17.5039 10.1637 17.9604 10.8293 17.9585 11.7501C17.9559 13.0368 17.8077 13.9948 17.3077 14.8864C17.2493 14.9906 17.2085 15.0826 17.0927 15.3138C16.9968 15.5052 16.8615 15.7645 16.6828 16.0203C16.3107 16.553 15.6539 17.1971 14.5941 17.2652C13.6066 17.3286 12.6835 17.3383 12.1781 17.2554C12.0331 17.2316 11.8912 17.2187 11.6396 17.1885C11.4226 17.1626 11.1352 17.1242 10.8467 17.051C10.3213 16.9177 9.2988 16.5352 8.97875 15.3423C8.83984 14.8242 8.65456 13.937 8.6092 13.0127C8.5688 12.1894 8.60986 10.8956 9.33103 9.94321C9.62859 9.55032 9.96941 9.31292 10.3658 9.07856C12.1301 8.03556 13.6414 7.8956 14.3234 7.89557Z" fill="#302681"/>
<path d="M17.6223 6.22021C17.1941 6.27243 16.8021 6.49205 16.5314 6.83361C16.2607 7.17522 16.1308 7.61402 16.1681 8.05509C16.2055 8.49611 16.4085 8.90211 16.7221 9.19666C16.9249 9.38717 17.1208 9.57122 17.316 9.75879C17.4154 9.85418 17.5153 9.9512 17.6168 10.049C18.7191 11.1052 19.7374 12.2401 20.9611 13.4204C21.0009 13.4584 21.0419 13.495 21.0819 13.5329C19.9921 14.2651 18.8987 15.0135 17.83 15.7578C17.5883 15.9255 17.3452 16.0926 17.1176 16.2466C16.9703 16.3475 16.7994 16.456 16.7939 16.4668C16.723 16.5023 16.6502 16.5381 16.5795 16.5738C16.1952 16.7682 15.8847 17.0998 15.7225 17.5116C15.5601 17.9235 15.559 18.3796 15.72 18.7831C15.881 19.1867 16.1924 19.5084 16.5874 19.6798C16.9824 19.8513 17.4277 19.8559 17.8315 19.7104C17.905 19.6839 17.9773 19.6584 18.051 19.6318C18.4157 19.484 18.5917 19.3793 18.7936 19.2761C19.0819 19.1237 19.3508 18.9747 19.6196 18.8237C20.96 18.0678 22.2596 17.2899 23.5559 16.4775C23.8171 16.3136 24.0774 16.1553 24.3556 15.9862C24.4986 15.8985 24.6373 15.8154 24.8318 15.6861C24.9341 15.6152 25.0376 15.5523 25.2453 15.3688C25.3498 15.2684 25.4932 15.1529 25.6978 14.8209C25.914 14.5244 26.1111 13.6806 25.9271 13.1504C25.9246 13.1414 25.9214 13.1322 25.9188 13.1233C25.6927 12.4754 25.569 12.4571 25.494 12.3378C25.4166 12.2471 25.37 12.2002 25.3289 12.1589C25.2489 12.0798 25.1958 12.0331 25.1449 11.9871C25.0464 11.8988 24.9651 11.8276 24.8837 11.757C24.722 11.6172 24.5674 11.4845 24.4121 11.3495C24.1029 11.0806 23.7951 10.8083 23.4862 10.5329C22.3749 9.53595 21.1703 8.36652 19.8573 7.33634C19.7439 7.24692 19.6288 7.1576 19.5126 7.06742C19.2836 6.88959 19.0512 6.71345 18.824 6.54505C18.4792 6.28987 18.0506 6.16797 17.6223 6.22021Z" fill="#FFCB00"/>
<path d="M8.94721 19.7904C9.38213 19.7164 9.77129 19.4774 10.0303 19.1228C10.2893 18.7683 10.3994 18.3239 10.3384 17.8859C10.2775 17.4478 10.0491 17.0532 9.71348 16.7754C9.49641 16.5957 9.28673 16.4221 9.07753 16.245C8.97103 16.1549 8.864 16.0632 8.75516 15.9708C7.57422 14.9735 6.47514 13.8934 5.16367 12.7784C5.12107 12.7426 5.07726 12.7081 5.03449 12.6724C6.11035 11.8864 7.18904 11.0841 8.24269 10.287C8.48093 10.1074 8.72074 9.9284 8.94537 9.7631C9.09071 9.65499 9.25974 9.53797 9.26481 9.52697C9.33542 9.48795 9.40792 9.4485 9.47842 9.40923C9.86102 9.19574 10.1612 8.84913 10.3057 8.43002C10.4504 8.01093 10.428 7.5559 10.2426 7.16154C10.0573 6.76722 9.72246 6.46222 9.30999 6.31133C8.89751 6.16043 8.44215 6.17858 8.03711 6.34434C7.96333 6.37456 7.8908 6.40364 7.81683 6.43395C7.45176 6.60005 7.27738 6.71345 7.07635 6.82672C6.78966 6.99344 6.52253 7.15579 6.25567 7.32009C4.92496 8.1425 3.63713 8.98483 2.35433 9.86136C2.09596 10.0381 1.8381 10.2094 1.56255 10.3923C1.42093 10.4871 1.28354 10.577 1.09141 10.7159C0.990504 10.7918 0.888025 10.8598 0.685216 11.0535C0.583613 11.159 0.443059 11.2816 0.251106 11.6232C0.0454832 11.9299 -0.112335 12.7817 0.103075 13.3012C0.10606 13.3101 0.109836 13.3191 0.1129 13.3278C0.377377 13.9626 0.504739 13.9745 0.587618 14.0896C0.6714 14.1762 0.72138 14.2206 0.765489 14.2597C0.851351 14.3345 0.90801 14.3784 0.962391 14.4217C1.06761 14.5048 1.1544 14.5716 1.24123 14.6379C1.41369 14.7691 1.57853 14.8936 1.74413 15.0204C2.07404 15.2728 2.40254 15.5287 2.73243 15.7876C3.91948 16.7254 5.21083 17.8305 6.60567 18.7911C6.7262 18.8745 6.84846 18.9577 6.97188 19.0417C7.215 19.2074 7.46165 19.3713 7.70246 19.5277C8.06796 19.7646 8.51228 19.8643 8.94721 19.7904Z" fill="#FFCB00"/>
<path d="M13.3752 6.48333C13.8423 6.23964 14.3985 6.15291 14.9291 6.24318C15.4599 6.33352 15.9289 6.59572 16.2416 6.97228C16.5545 7.34886 16.6803 7.80876 16.6288 8.25718C16.6038 8.4488 16.5765 8.62354 16.54 8.80356C16.5018 8.99187 16.4556 9.17861 16.4022 9.36538C16.2976 9.73016 16.1673 10.0923 16.0078 10.4667C15.5753 11.4571 15.0624 12.417 14.7504 13.4169C14.4378 14.4168 14.1829 15.4243 13.9799 16.4468C13.8894 16.9073 13.8081 17.387 13.7355 17.8635C13.7095 18.0343 13.6844 18.2082 13.6616 18.376C13.5965 18.8473 13.2709 19.2561 12.7915 19.5183C12.3117 19.7802 11.7105 19.8734 11.1262 19.7776C10.5418 19.6817 10.0291 19.4056 9.70673 19.012C9.38482 18.6184 9.27315 18.1378 9.43066 17.6817C9.48917 17.5115 9.54809 17.343 9.60528 17.1736C9.76495 16.7012 9.91708 16.2301 10.0743 15.7455C10.4124 14.7093 10.7431 13.6701 11.0677 12.6319C11.3913 11.5945 11.5641 10.5273 11.8215 9.49206C11.8955 9.17947 11.9743 8.84802 12.0688 8.5181C12.1173 8.34873 12.1711 8.17942 12.2291 8.01032C12.2839 7.85138 12.3453 7.68359 12.4052 7.53764C12.5723 7.10888 12.9077 6.72705 13.3752 6.48333Z" fill="white"/>
</svg>
