<svg width="143" height="37" viewBox="0 0 143 37" fill="none" xmlns="http://www.w3.org/2000/svg">
<path d="M11.0071 35.5483C10.2381 35.4507 9.61321 35.402 9.13255 35.402C8.71597 35.402 8.18724 35.4345 7.54636 35.4995L7.30603 35.5483C6.60106 35.6133 5.99223 35.6458 5.47953 35.6458C4.99887 35.6458 4.40605 35.6133 3.70108 35.5483C3.54086 34.573 3.46075 32.3136 3.46075 28.7702L3.50882 24.7229V21.3095L3.55688 19.1151V18.3349C1.95468 18.3349 0.817123 18.3512 0.144199 18.3837L0 11.9469H1.58618C1.84253 11.9469 2.11491 11.9469 2.4033 11.9469C2.72374 11.9144 3.07623 11.9144 3.46075 11.9469C3.36462 10.1265 3.76517 8.28972 4.6624 6.43672C5.59168 4.58373 7.00162 3.28338 8.89222 2.53568C10.7828 1.8855 13.2182 1.56042 16.1982 1.56042C17.0955 1.56042 17.9607 1.59293 18.7938 1.65794C19.0822 2.50317 19.2264 3.44592 19.2264 4.4862C19.2264 5.55899 19.1303 6.77806 18.938 8.14343L18.8899 8.72858C18.6656 8.69608 18.2971 8.67982 17.7844 8.67982C16.6949 8.67982 15.2529 8.80986 13.4585 9.06993L12.7375 9.16745H12.7856C12.5933 9.23247 12.417 9.26498 12.2568 9.26498H12.3049C11.664 9.39501 11.3436 9.98017 11.3436 11.0204C11.3436 11.2155 11.3756 11.5731 11.4397 12.0932H18.8899C18.8259 12.5484 18.7938 13.036 18.7938 13.5561V14.5802C18.7938 15.718 18.7297 16.872 18.6015 18.0423L18.5535 18.2861V18.725L16.1021 18.5787L15.7176 18.53C14.1154 18.3999 12.6414 18.3187 11.2955 18.2861V35.3044L11.0071 35.5483Z" fill="currentColor"/>
<path d="M26.6241 24.5766C26.6561 25.6494 26.7042 26.4458 26.7683 26.966C26.8644 27.4536 27.0887 27.9737 27.4412 28.5264C27.6975 29.014 28.034 29.3879 28.4506 29.6479C28.8671 29.908 29.2997 30.038 29.7484 30.038C30.4213 30.038 30.966 29.6804 31.3826 28.9653C31.7992 28.2176 31.9754 27.1285 31.9113 25.6981C32.8406 25.8282 33.834 25.8607 34.8914 25.7957L39.4096 26.0395C39.4096 27.5024 39.2975 28.9815 39.0732 30.4769C38.8809 31.9723 38.4964 33.1101 37.9196 33.8903C37.2787 34.8006 36.3494 35.4182 35.1318 35.7433C33.9461 36.1009 32.5522 36.2797 30.95 36.2797C30.3412 36.2797 29.492 36.2472 28.4025 36.1822C27.8898 36.1497 27.1368 36.1334 26.1434 36.1334C25.15 36.0034 24.1567 35.6458 23.1633 35.0606C21.6252 33.8253 20.4876 32.0698 19.7506 29.7942C19.0136 27.5186 18.6451 25.048 18.6451 22.3822C18.6451 19.5865 19.0296 17.0183 19.7987 14.6777C20.4396 13.2148 21.6252 12.077 23.3556 11.2643C25.086 10.4515 27.0086 10.0452 29.1235 10.0452C30.2771 10.0452 31.3986 10.1752 32.4881 10.4353C34.9555 10.9229 36.75 12.1095 37.8715 13.995C39.0251 15.848 39.6019 18.0748 39.6019 20.6755C39.6019 21.0981 39.5698 21.8296 39.5057 22.8699C38.8969 23.0324 37.503 23.195 35.324 23.3575C33.145 23.4875 31.1102 23.5526 29.2196 23.5526H26.6241V24.5766ZM31.3345 15.7992C30.8539 15.5067 30.4213 15.3604 30.0367 15.3604C28.9152 15.3604 28.1141 15.6204 27.6334 16.1406C27.1528 16.6607 26.8644 17.3922 26.7683 18.3349C26.7362 18.4649 26.7202 18.6112 26.7202 18.7738C26.7202 18.9688 26.8163 19.0826 27.0086 19.1151C27.2009 19.1476 27.6815 19.1476 28.4506 19.1151H30.5655L32.0075 19.1639H32.6323C32.7284 19.1964 32.7925 19.1964 32.8246 19.1639C32.8566 19.1314 32.8726 19.0664 32.8726 18.9688V18.7738C32.8726 18.0911 32.7445 17.4897 32.4881 16.9695C32.2638 16.4494 31.9434 16.0756 31.5268 15.848L31.3345 15.7992Z" fill="currentColor"/>
<path d="M48.7025 0.146287C48.7025 1.02402 48.7185 1.75547 48.7506 2.34063C48.7506 2.66571 48.7826 3.25087 48.8467 4.0961L48.9428 7.21693C48.7826 7.41198 48.5263 7.50951 48.1738 7.50951C47.9495 7.50951 47.645 7.49326 47.2605 7.46075C46.876 7.39573 46.5556 7.36322 46.2992 7.36322C45.9147 7.36322 45.3058 7.33071 44.4727 7.26569C44.1523 7.23318 43.6075 7.21693 42.8385 7.21693C42.0053 7.21693 41.3644 7.23318 40.9158 7.26569C40.9158 6.58301 40.8838 5.68902 40.8197 4.58373L40.7716 3.80352C40.7075 2.37313 40.6915 1.1053 40.7235 0L48.7025 0.146287ZM48.8948 10.8742C48.8948 12.5646 48.8627 15.0353 48.7986 18.2861L48.7506 21.0169C48.6865 24.0077 48.6544 26.2508 48.6544 27.7462C48.6544 30.5419 48.7185 32.9963 48.8467 35.1094C48.6865 35.337 48.35 35.4832 47.8373 35.5483C47.3567 35.6458 46.6837 35.6946 45.8185 35.6946C44.8252 35.6946 44.1362 35.6783 43.7517 35.6458C42.502 35.5808 41.4445 35.6783 40.5793 35.9384C40.7396 33.7603 40.8197 31.5659 40.8197 29.3554C40.8197 27.99 40.7876 25.9745 40.7235 23.3087C40.6595 21.0981 40.6274 19.1801 40.6274 17.5547C40.6274 15.1491 40.7235 12.8247 40.9158 10.5816C41.3644 10.5166 41.749 10.4841 42.0694 10.4841C42.3578 10.4841 42.5821 10.5003 42.7423 10.5328C44.729 10.6303 46.2832 10.6629 47.4047 10.6303L48.8948 10.8742Z" fill="currentColor"/>
<path d="M60.8166 11.0692C62.4829 11.0042 63.957 10.9229 65.2387 10.8254L65.9116 10.7766C66.1359 10.7441 66.3603 10.7441 66.5846 10.7766C66.8409 10.7766 67.0492 10.7766 67.2094 10.7766H68.3149C68.4431 12.077 68.5072 12.8247 68.5072 13.0197C68.5072 13.1823 68.4752 13.6862 68.4111 14.5314L68.363 15.0678L68.3149 16.1406C68.3149 16.3681 68.347 16.742 68.4111 17.2621H60.9128C60.9128 22.431 60.8968 25.6006 60.8647 26.7709C61.3454 27.3886 62.2106 27.8437 63.4603 28.1363C64.71 28.4289 66.0078 28.5751 67.3536 28.5751L68.363 28.5264V28.9653L68.4111 29.1603V29.1115C68.6033 30.4769 68.6995 31.696 68.6995 32.7688C68.6995 33.8091 68.5553 34.7518 68.2669 35.597C67.4337 35.662 66.5846 35.6946 65.7194 35.6946C62.8034 35.6946 60.2398 35.3532 58.0288 34.6705C55.8498 33.9553 54.4078 32.7525 53.7029 31.0621C53.4145 29.3066 53.2222 27.5674 53.1261 25.8444C53.03 24.0889 52.9819 22.0897 52.9819 19.8466V17.4084C52.5653 17.4409 52.1808 17.4572 51.8283 17.4572C51.5079 17.4247 51.2195 17.4084 50.9631 17.4084H49.5211L49.6653 10.9717C50.5305 11.0042 51.6681 11.0204 53.078 11.0204L53.1261 1.70671C53.8311 1.64169 54.4399 1.60918 54.9526 1.60918C55.4653 1.60918 56.0741 1.64169 56.7791 1.70671L57.1156 1.75547C57.8846 1.82049 58.4774 1.853 58.894 1.853C59.5028 1.853 60.1277 1.80423 60.7686 1.70671V10.5816L60.8166 11.0692Z" fill="currentColor"/>
<path d="M77.7704 10.0939C77.9306 10.1265 78.5074 10.1427 79.5008 10.1427C79.6931 10.1102 80.0936 10.0939 80.7024 10.0939C81.087 10.0939 81.3593 10.1102 81.5196 10.1427C82.6411 10.2077 83.6986 10.4353 84.6919 10.8254C85.7173 11.183 86.5345 11.6706 87.1433 12.2883C88.0726 13.036 88.6814 14.2063 88.9698 15.7992C89.2582 17.3922 89.4024 19.2451 89.4024 21.3582V22.9674C89.3062 25.7306 89.146 28.055 88.9217 29.9405C88.6974 31.826 88.3129 33.0939 87.7681 33.744C87.1273 34.6543 86.198 35.2882 84.9803 35.6458C83.7947 36.0034 82.4008 36.1822 80.7986 36.1822C80.1897 36.1822 79.3406 36.1497 78.2511 36.0847C77.2257 36.0196 76.4406 35.9871 75.8958 35.9871C74.1975 35.662 72.7075 34.9306 71.4257 33.7928C70.4323 32.8175 69.7434 31.5985 69.3589 30.1356C68.9743 28.6402 68.7821 26.966 68.7821 25.113L68.734 19.554C68.6379 18.6762 68.734 17.4084 69.0224 15.7505C69.3428 14.0925 69.6633 13.1498 69.9837 12.9222C70.3362 12.012 71.2495 11.313 72.7235 10.8254C74.2296 10.3378 75.9119 10.0939 77.7704 10.0939ZM76.761 19.9441C76.729 20.2692 76.6969 20.7243 76.6649 21.3095C76.6329 21.8621 76.6168 22.2847 76.6168 22.5773L76.5688 23.5526C76.5688 24.3653 76.5367 25.2593 76.4726 26.2345C76.5047 26.9497 76.777 27.5349 77.2897 27.99C77.8025 28.4451 78.3793 28.6727 79.0201 28.6727C79.661 28.6727 80.3019 28.5264 80.9428 28.2338C81.135 28.1363 81.3754 27.5999 81.6638 26.6246L81.7118 26.3808C81.9041 24.7554 82.0002 23.5688 82.0002 22.8211C82.0002 22.0409 81.9361 21.342 81.808 20.7243C81.6477 19.8791 81.3273 19.2126 80.8466 18.725C80.398 18.2374 79.8212 17.9936 79.1163 17.9936C78.9881 17.9936 78.7317 18.0261 78.3472 18.0911C77.5461 18.3512 77.0815 18.7088 76.9533 19.1639L76.761 19.9441Z" fill="currentColor"/>
<path d="M108.313 12.7759C108.345 12.7759 108.345 12.7759 108.313 12.7759C108.313 12.7434 108.329 12.7272 108.361 12.7272C109.13 12.207 110.012 11.8007 111.005 11.5081C112.03 11.183 113.04 11.0204 114.033 11.0204C116.148 11.0204 117.782 11.5406 118.936 12.5809C119.833 13.3936 120.282 16.0756 120.282 20.6268C120.282 21.9596 120.25 23.9914 120.186 26.7222C120.122 29.0628 120.09 30.737 120.09 31.7447C120.09 32.85 120.122 34.0854 120.186 35.4507C118.423 35.7108 116.693 35.8083 114.995 35.7433H112.735C112.671 34.7681 112.639 32.8826 112.639 30.0868V27.6486C112.639 26.0557 112.607 24.9017 112.543 24.1865L112.495 23.8939V23.5526C112.431 22.6423 112.351 21.9271 112.255 21.407C112.191 20.8868 111.982 20.3992 111.63 19.9441C111.309 19.489 110.797 19.2614 110.092 19.2614C109.579 19.2614 109.114 19.489 108.698 19.9441C108.281 20.3992 108.057 21.0819 108.025 21.9921C107.993 22.4798 107.977 23.2275 107.977 24.2352C107.977 25.048 108.009 26.2345 108.073 27.7949C108.137 29.4204 108.169 30.6394 108.169 31.4522C108.169 32.9151 108.105 34.2154 107.977 35.3532C107.112 35.5808 106.407 35.7108 105.862 35.7433C105.349 35.8083 104.772 35.8246 104.132 35.7921C103.843 35.7596 103.379 35.7433 102.738 35.7433C102.001 35.7433 101.28 35.7758 100.575 35.8408C100.575 31.9398 100.559 29.0465 100.527 27.161C100.463 22.9349 100.431 19.7328 100.431 17.5547C100.431 15.9618 100.463 13.7024 100.527 10.7766C101.552 10.9067 102.353 10.9717 102.93 10.9717C103.475 10.9717 104.003 10.9392 104.516 10.8742L105.333 10.7766C106.038 10.7116 106.583 10.6791 106.968 10.6791C107.737 10.6791 108.153 10.7929 108.217 11.0204C108.281 11.4106 108.313 11.9795 108.313 12.7272V12.7759Z" fill="currentColor"/>
<path d="M130.577 10.0939C130.738 10.1265 131.314 10.1427 132.308 10.1427C132.5 10.1102 132.901 10.0939 133.509 10.0939C133.894 10.0939 134.166 10.1102 134.326 10.1427C135.448 10.2077 136.505 10.4353 137.499 10.8254C138.524 11.183 139.341 11.6706 139.95 12.2883C140.879 13.036 141.488 14.2063 141.777 15.7992C142.065 17.3922 142.209 19.2451 142.209 21.3582V22.9674C142.113 25.7306 141.953 28.055 141.729 29.9405C141.504 31.826 141.12 33.0939 140.575 33.744C139.934 34.6543 139.005 35.2882 137.787 35.6458C136.602 36.0034 135.208 36.1822 133.605 36.1822C132.997 36.1822 132.147 36.1497 131.058 36.0847C130.033 36.0196 129.247 35.9871 128.703 35.9871C127.004 35.662 125.514 34.9306 124.233 33.7928C123.239 32.8175 122.55 31.5985 122.166 30.1356C121.781 28.6402 121.589 26.966 121.589 25.113L121.541 19.554C121.445 18.6762 121.541 17.4084 121.829 15.7505C122.15 14.0925 122.47 13.1498 122.791 12.9222C123.143 12.012 124.056 11.313 125.53 10.8254C127.036 10.3378 128.719 10.0939 130.577 10.0939ZM129.568 19.9441C129.536 20.2692 129.504 20.7243 129.472 21.3095C129.44 21.8621 129.424 22.2847 129.424 22.5773L129.376 23.5526C129.376 24.3653 129.344 25.2593 129.28 26.2345C129.312 26.9497 129.584 27.5349 130.097 27.99C130.609 28.4451 131.186 28.6727 131.827 28.6727C132.468 28.6727 133.109 28.5264 133.75 28.2338C133.942 28.1363 134.182 27.5999 134.471 26.6246L134.519 26.3808C134.711 24.7554 134.807 23.5688 134.807 22.8211C134.807 22.0409 134.743 21.342 134.615 20.7243C134.455 19.8791 134.134 19.2126 133.654 18.725C133.205 18.2374 132.628 17.9936 131.923 17.9936C131.795 17.9936 131.539 18.0261 131.154 18.0911C130.353 18.3512 129.888 18.7088 129.76 19.1639L129.568 19.9441Z" fill="currentColor"/>
</svg>
