<svg width="250" height="120" viewBox="0 0 250 120" fill="none" xmlns="http://www.w3.org/2000/svg">
<path d="M61.0071 35.5483C60.2381 35.4507 59.6132 35.402 59.1325 35.402C58.716 35.402 58.1872 35.4345 57.5464 35.4995L57.306 35.5483C56.6011 35.6133 55.9922 35.6458 55.4795 35.6458C54.9989 35.6458 54.4061 35.6133 53.7011 35.5483C53.5409 34.573 53.4608 32.3136 53.4608 28.7702L53.5088 24.7229V21.3095L53.5569 19.1151V18.3349C51.9547 18.3349 50.8171 18.3512 50.1442 18.3837L50 11.9469H51.5862C51.8425 11.9469 52.1149 11.9469 52.4033 11.9469C52.7237 11.9144 53.0762 11.9144 53.4608 11.9469C53.3646 10.1265 53.7652 8.28972 54.6624 6.43672C55.5917 4.58372 57.0016 3.28338 58.8922 2.53568C60.7828 1.8855 63.2182 1.56042 66.1982 1.56042C67.0955 1.56042 67.9607 1.59293 68.7938 1.65794C69.0822 2.50317 69.2264 3.44592 69.2264 4.4862C69.2264 5.55899 69.1303 6.77806 68.938 8.14343L68.8899 8.72858C68.6656 8.69608 68.2971 8.67982 67.7844 8.67982C66.6949 8.67982 65.2529 8.80986 63.4585 9.06993L62.7375 9.16745H62.7856C62.5933 9.23247 62.417 9.26498 62.2568 9.26498H62.3049C61.664 9.39501 61.3436 9.98017 61.3436 11.0204C61.3436 11.2155 61.3756 11.5731 61.4397 12.0932H68.8899C68.8259 12.5484 68.7938 13.036 68.7938 13.5561V14.5801C68.7938 15.718 68.7297 16.872 68.6015 18.0423L68.5535 18.2861V18.725L66.1021 18.5787L65.7176 18.53C64.1154 18.3999 62.6414 18.3186 61.2955 18.2861V35.3044L61.0071 35.5483Z" fill="white"/>
<path d="M76.6241 24.5766C76.6561 25.6494 76.7042 26.4458 76.7683 26.966C76.8644 27.4536 77.0887 27.9737 77.4412 28.5264C77.6975 29.014 78.034 29.3879 78.4506 29.6479C78.8671 29.908 79.2997 30.038 79.7484 30.038C80.4213 30.038 80.966 29.6804 81.3826 28.9652C81.7992 28.2175 81.9754 27.1285 81.9113 25.6981C82.8406 25.8282 83.834 25.8607 84.8914 25.7957L89.4096 26.0395C89.4096 27.5024 89.2975 28.9815 89.0732 30.4769C88.8809 31.9723 88.4964 33.1101 87.9196 33.8903C87.2787 34.8006 86.3494 35.4182 85.1318 35.7433C83.9461 36.1009 82.5522 36.2797 80.95 36.2797C80.3412 36.2797 79.492 36.2472 78.4025 36.1822C77.8898 36.1497 77.1368 36.1334 76.1434 36.1334C75.15 36.0034 74.1567 35.6458 73.1633 35.0606C71.6252 33.8253 70.4876 32.0698 69.7506 29.7942C69.0136 27.5186 68.6451 25.048 68.6451 22.3822C68.6451 19.5865 69.0296 17.0183 69.7987 14.6777C70.4396 13.2148 71.6252 12.077 73.3556 11.2643C75.086 10.4515 77.0086 10.0452 79.1235 10.0452C80.2771 10.0452 81.3986 10.1752 82.4881 10.4353C84.9555 10.9229 86.75 12.1095 87.8715 13.995C89.0251 15.848 89.6019 18.0748 89.6019 20.6755C89.6019 21.0981 89.5698 21.8296 89.5057 22.8699C88.8969 23.0324 87.503 23.195 85.324 23.3575C83.145 23.4875 81.1102 23.5525 79.2196 23.5525H76.6241V24.5766ZM81.3345 15.7992C80.8539 15.5066 80.4213 15.3604 80.0367 15.3604C78.9152 15.3604 78.1141 15.6204 77.6334 16.1406C77.1528 16.6607 76.8644 17.3922 76.7683 18.3349C76.7362 18.4649 76.7202 18.6112 76.7202 18.7738C76.7202 18.9688 76.8163 19.0826 77.0086 19.1151C77.2009 19.1476 77.6815 19.1476 78.4506 19.1151H80.5655L82.0075 19.1639H82.6323C82.7284 19.1964 82.7925 19.1964 82.8246 19.1639C82.8566 19.1314 82.8726 19.0663 82.8726 18.9688V18.7738C82.8726 18.0911 82.7445 17.4897 82.4881 16.9695C82.2638 16.4494 81.9434 16.0755 81.5268 15.848L81.3345 15.7992Z" fill="white"/>
<path d="M98.7025 0.146287C98.7025 1.02402 98.7185 1.75547 98.7506 2.34063C98.7506 2.66571 98.7826 3.25087 98.8467 4.0961L98.9428 7.21693C98.7826 7.41198 98.5263 7.50951 98.1738 7.50951C97.9495 7.50951 97.645 7.49325 97.2605 7.46075C96.876 7.39573 96.5556 7.36322 96.2992 7.36322C95.9147 7.36322 95.3058 7.33071 94.4727 7.26569C94.1523 7.23318 93.6075 7.21693 92.8385 7.21693C92.0053 7.21693 91.3644 7.23318 90.9158 7.26569C90.9158 6.58301 90.8838 5.68902 90.8197 4.58373L90.7716 3.80352C90.7075 2.37313 90.6915 1.1053 90.7235 0L98.7025 0.146287ZM98.8948 10.8742C98.8948 12.5646 98.8627 15.0353 98.7986 18.2861L98.7506 21.0169C98.6865 24.0077 98.6544 26.2508 98.6544 27.7462C98.6544 30.5419 98.7185 32.9963 98.8467 35.1094C98.6865 35.337 98.35 35.4832 97.8373 35.5483C97.3567 35.6458 96.6837 35.6946 95.8185 35.6946C94.8252 35.6946 94.1362 35.6783 93.7517 35.6458C92.502 35.5808 91.4445 35.6783 90.5793 35.9384C90.7396 33.7603 90.8197 31.5659 90.8197 29.3554C90.8197 27.99 90.7876 25.9744 90.7235 23.3087C90.6595 21.0981 90.6274 19.1801 90.6274 17.5547C90.6274 15.1491 90.7235 12.8247 90.9158 10.5816C91.3644 10.5166 91.749 10.4841 92.0694 10.4841C92.3578 10.4841 92.5821 10.5003 92.7423 10.5328C94.729 10.6303 96.2832 10.6629 97.4047 10.6303L98.8948 10.8742Z" fill="white"/>
<path d="M110.817 11.0692C112.483 11.0042 113.957 10.9229 115.239 10.8254L115.912 10.7766C116.136 10.7441 116.36 10.7441 116.585 10.7766C116.841 10.7766 117.049 10.7766 117.209 10.7766H118.315C118.443 12.077 118.507 12.8247 118.507 13.0197C118.507 13.1823 118.475 13.6862 118.411 14.5314L118.363 15.0678L118.315 16.1406C118.315 16.3681 118.347 16.742 118.411 17.2621H110.913C110.913 22.431 110.897 25.6006 110.865 26.7709C111.345 27.3886 112.211 27.8437 113.46 28.1363C114.71 28.4289 116.008 28.5751 117.354 28.5751L118.363 28.5264V28.9652L118.411 29.1603V29.1115C118.603 30.4769 118.699 31.696 118.699 32.7688C118.699 33.809 118.555 34.7518 118.267 35.597C117.434 35.662 116.585 35.6946 115.719 35.6946C112.803 35.6946 110.24 35.3532 108.029 34.6705C105.85 33.9553 104.408 32.7525 103.703 31.0621C103.414 29.3066 103.222 27.5674 103.126 25.8444C103.03 24.0889 102.982 22.0897 102.982 19.8466V17.4084C102.565 17.4409 102.181 17.4572 101.828 17.4572C101.508 17.4247 101.219 17.4084 100.963 17.4084H99.5211L99.6653 10.9717C100.531 11.0042 101.668 11.0204 103.078 11.0204L103.126 1.7067C103.831 1.64169 104.44 1.60918 104.953 1.60918C105.465 1.60918 106.074 1.64169 106.779 1.7067L107.116 1.75547C107.885 1.82049 108.477 1.853 108.894 1.853C109.503 1.853 110.128 1.80423 110.769 1.7067V10.5816L110.817 11.0692Z" fill="white"/>
<path d="M127.77 10.0939C127.931 10.1265 128.507 10.1427 129.501 10.1427C129.693 10.1102 130.094 10.0939 130.702 10.0939C131.087 10.0939 131.359 10.1102 131.52 10.1427C132.641 10.2077 133.699 10.4353 134.692 10.8254C135.717 11.183 136.534 11.6706 137.143 12.2883C138.073 13.036 138.681 14.2063 138.97 15.7992C139.258 17.3922 139.402 19.2451 139.402 21.3582V22.9674C139.306 25.7306 139.146 28.055 138.922 29.9405C138.697 31.826 138.313 33.0939 137.768 33.744C137.127 34.6543 136.198 35.2882 134.98 35.6458C133.795 36.0034 132.401 36.1822 130.799 36.1822C130.19 36.1822 129.341 36.1497 128.251 36.0847C127.226 36.0196 126.441 35.9871 125.896 35.9871C124.198 35.662 122.707 34.9306 121.426 33.7928C120.432 32.8175 119.743 31.5985 119.359 30.1356C118.974 28.6402 118.782 26.966 118.782 25.113L118.734 19.554C118.638 18.6762 118.734 17.4084 119.022 15.7505C119.343 14.0925 119.663 13.1498 119.984 12.9222C120.336 12.012 121.249 11.313 122.723 10.8254C124.23 10.3378 125.912 10.0939 127.77 10.0939ZM126.761 19.9441C126.729 20.2692 126.697 20.7243 126.665 21.3095C126.633 21.8621 126.617 22.2847 126.617 22.5773L126.569 23.5525C126.569 24.3653 126.537 25.2593 126.473 26.2345C126.505 26.9497 126.777 27.5349 127.29 27.99C127.802 28.4451 128.379 28.6727 129.02 28.6727C129.661 28.6727 130.302 28.5264 130.943 28.2338C131.135 28.1363 131.375 27.5999 131.664 26.6246L131.712 26.3808C131.904 24.7554 132 23.5688 132 22.8211C132 22.0409 131.936 21.342 131.808 20.7243C131.648 19.8791 131.327 19.2126 130.847 18.725C130.398 18.2374 129.821 17.9936 129.116 17.9936C128.988 17.9936 128.732 18.0261 128.347 18.0911C127.546 18.3512 127.081 18.7088 126.953 19.1639L126.761 19.9441Z" fill="white"/>
<path d="M158.313 12.7759C158.345 12.7759 158.345 12.7759 158.313 12.7759C158.313 12.7434 158.329 12.7272 158.361 12.7272C159.13 12.207 160.012 11.8007 161.005 11.5081C162.03 11.183 163.04 11.0204 164.033 11.0204C166.148 11.0204 167.782 11.5406 168.936 12.5809C169.833 13.3936 170.282 16.0755 170.282 20.6268C170.282 21.9596 170.25 23.9914 170.186 26.7221C170.122 29.0628 170.09 30.737 170.09 31.7447C170.09 32.85 170.122 34.0854 170.186 35.4507C168.423 35.7108 166.693 35.8083 164.995 35.7433H162.735C162.671 34.768 162.639 32.8825 162.639 30.0868V27.6486C162.639 26.0557 162.607 24.9017 162.543 24.1865L162.495 23.8939V23.5525C162.431 22.6423 162.351 21.9271 162.255 21.407C162.191 20.8868 161.982 20.3992 161.63 19.9441C161.309 19.489 160.797 19.2614 160.092 19.2614C159.579 19.2614 159.114 19.489 158.698 19.9441C158.281 20.3992 158.057 21.0819 158.025 21.9921C157.993 22.4798 157.977 23.2275 157.977 24.2352C157.977 25.0479 158.009 26.2345 158.073 27.7949C158.137 29.4204 158.169 30.6394 158.169 31.4522C158.169 32.9151 158.105 34.2154 157.977 35.3532C157.112 35.5808 156.407 35.7108 155.862 35.7433C155.349 35.8083 154.772 35.8246 154.132 35.7921C153.843 35.7596 153.379 35.7433 152.738 35.7433C152.001 35.7433 151.28 35.7758 150.575 35.8408C150.575 31.9398 150.559 29.0465 150.527 27.161C150.463 22.9349 150.431 19.7328 150.431 17.5547C150.431 15.9618 150.463 13.7024 150.527 10.7766C151.552 10.9067 152.353 10.9717 152.93 10.9717C153.475 10.9717 154.003 10.9392 154.516 10.8742L155.333 10.7766C156.038 10.7116 156.583 10.6791 156.968 10.6791C157.737 10.6791 158.153 10.7929 158.217 11.0204C158.281 11.4106 158.313 11.9795 158.313 12.7272V12.7759Z" fill="white"/>
<path d="M180.577 10.0939C180.738 10.1265 181.314 10.1427 182.308 10.1427C182.5 10.1102 182.901 10.0939 183.509 10.0939C183.894 10.0939 184.166 10.1102 184.326 10.1427C185.448 10.2077 186.505 10.4353 187.499 10.8254C188.524 11.183 189.341 11.6706 189.95 12.2883C190.879 13.036 191.488 14.2063 191.777 15.7992C192.065 17.3922 192.209 19.2451 192.209 21.3582V22.9674C192.113 25.7306 191.953 28.055 191.729 29.9405C191.504 31.826 191.12 33.0939 190.575 33.744C189.934 34.6543 189.005 35.2882 187.787 35.6458C186.602 36.0034 185.208 36.1822 183.605 36.1822C182.997 36.1822 182.147 36.1497 181.058 36.0847C180.033 36.0196 179.247 35.9871 178.703 35.9871C177.004 35.662 175.514 34.9306 174.233 33.7928C173.239 32.8175 172.55 31.5985 172.166 30.1356C171.781 28.6402 171.589 26.966 171.589 25.113L171.541 19.554C171.445 18.6762 171.541 17.4084 171.829 15.7505C172.15 14.0925 172.47 13.1498 172.791 12.9222C173.143 12.012 174.056 11.313 175.53 10.8254C177.036 10.3378 178.719 10.0939 180.577 10.0939ZM179.568 19.9441C179.536 20.2692 179.504 20.7243 179.472 21.3095C179.44 21.8621 179.424 22.2847 179.424 22.5773L179.376 23.5525C179.376 24.3653 179.344 25.2593 179.28 26.2345C179.312 26.9497 179.584 27.5349 180.097 27.99C180.609 28.4451 181.186 28.6727 181.827 28.6727C182.468 28.6727 183.109 28.5264 183.75 28.2338C183.942 28.1363 184.182 27.5999 184.471 26.6246L184.519 26.3808C184.711 24.7554 184.807 23.5688 184.807 22.8211C184.807 22.0409 184.743 21.342 184.615 20.7243C184.455 19.8791 184.134 19.2126 183.654 18.725C183.205 18.2374 182.628 17.9936 181.923 17.9936C181.795 17.9936 181.539 18.0261 181.154 18.0911C180.353 18.3512 179.888 18.7088 179.76 19.1639L179.568 19.9441Z" fill="white"/>
<path d="M202.322 57.5254C204.733 57.5255 206.688 59.4326 206.688 61.7846C206.688 61.7985 206.689 61.8804 206.73 67.8059C206.772 73.7809 206.856 85.7463 206.83 92.2845C206.815 95.9791 206.705 98.8467 206.594 101.437C206.482 104.035 206.371 106.29 206.344 108.882C206.338 109.449 206.964 109.761 207.419 109.428C207.525 109.349 207.634 109.269 207.745 109.186C209.219 108.087 211.094 106.62 212.867 105.424C214.585 104.264 216.769 102.956 219.032 102.427C223.182 101.457 227.216 103.134 230 104.617C232.75 106.082 235.886 108.32 237.381 109.246C237.579 109.369 238.098 109.552 239.032 109.565C239.525 109.572 240.013 109.525 240.439 109.46C240.486 109.453 240.51 109.45 240.538 109.443C240.644 109.42 240.776 109.36 240.864 109.296C240.888 109.278 240.9 109.268 240.925 109.246C241.077 109.118 241.212 108.999 241.394 108.816C241.591 108.618 241.87 108.319 242.292 107.829C243.844 106.028 246.597 105.796 248.443 107.309C250.288 108.822 250.528 111.507 248.977 113.308C247.929 114.524 247.3 115.13 246.635 115.69C246.104 116.138 245.395 116.697 244.56 117.139L244.298 117.279C244.21 117.325 244.167 117.348 244.121 117.366C244.075 117.384 244.027 117.397 243.932 117.423L243.64 117.501C242.437 117.824 240.736 118.106 238.91 118.08C237.13 118.056 234.791 117.731 232.7 116.436C230.242 114.913 228.34 113.44 225.813 112.094C223.319 110.765 221.831 110.531 221.064 110.71C220.486 110.846 219.434 111.347 217.835 112.426C216.289 113.47 214.762 114.676 213.049 115.954C211.513 117.099 209.643 118.451 207.89 119.223C207.023 119.604 205.703 120.068 204.198 119.975C202.386 119.862 200.73 118.962 199.687 117.377C199.666 117.347 199.382 116.933 199.147 116.513C198.867 116.013 198.589 115.409 198.349 114.665C197.872 113.192 197.589 111.31 197.615 108.796C197.644 106.036 197.762 103.618 197.871 101.078C197.981 98.5301 198.085 95.7858 198.099 92.25C198.124 85.7684 198.041 73.8592 197.999 67.8633C197.958 61.9167 197.956 61.8364 197.956 61.7846C197.956 59.4329 199.911 57.5259 202.322 57.5254Z" fill="white"/>
<path d="M182.057 85.5842C184.463 85.7418 186.288 87.849 186.133 90.29C186.132 90.3384 186.088 91.9401 186.022 95.0765C185.957 98.1793 185.875 102.638 185.789 108.162L185.806 110.904C185.847 113.235 185.945 114.414 186.008 115.229C186.194 117.667 184.395 119.797 181.992 119.987C179.589 120.175 177.489 118.353 177.302 115.915C177.205 114.648 177.049 112.674 177.058 108.141C177.056 108.122 177.056 108.1 177.058 108.081C177.229 97.047 177.4 90.061 177.421 89.7191C177.577 87.2785 179.651 85.4272 182.057 85.5842Z" fill="white"/>
<path fill-rule="evenodd" clip-rule="evenodd" d="M5.36997 53.5643C6.13225 53.6678 7.27665 53.9706 8.93676 54.4666C10.7143 54.9976 13.3769 55.8419 17.349 57.1673C24.0315 59.3972 35.713 63.0862 42.77 65.4136C46.2024 66.5456 48.3777 67.2929 49.7895 67.8293C50.9308 68.263 51.9245 68.6825 52.7681 69.2605L53.1222 69.5191L53.4733 69.813C53.9036 70.2031 54.5245 70.8856 54.8924 71.8878C55.5442 73.6659 55.0493 75.3373 54.2663 76.4429C53.6532 77.3083 52.8811 77.8317 52.4726 78.0887C51.9891 78.3927 51.4568 78.6598 50.9482 78.8968C50.6332 79.0436 50.314 79.1877 49.9906 79.3293C47.7488 80.3107 46.6279 80.8014 46.6298 81.3949C46.6318 81.9883 47.7641 82.4751 50.0287 83.4487C51.2651 83.9802 52.3586 84.5092 53.3387 84.989C56.7153 86.6419 59.1603 88.553 60.9931 90.6344C62.8156 92.7047 63.8846 94.7835 64.6652 96.4973C67.1194 101.886 65.1826 106.616 63.1964 109.346C61.7455 111.34 59.2469 112.69 57.3356 113.575C55.183 114.571 52.6954 115.448 50.3747 116.155C48.0501 116.863 45.0344 117.009 42.0239 116.993C38.8911 116.976 35.2088 116.769 31.3148 116.525C28.0803 116.323 25.2733 115.908 22.8247 115.393C21.9893 115.217 21.5716 115.129 21.3094 115.243C21.0471 115.358 20.7269 115.887 20.0864 116.946C19.4906 117.931 18.522 118.689 17.3197 118.985C14.9096 119.579 12.4753 118.096 11.8832 115.676C11.6258 114.622 11.4615 113.784 11.3138 112.295C11.2808 111.963 11.0654 111.669 10.7509 111.562L10.5863 111.506C10.5252 111.485 10.4947 111.475 10.465 111.463C10.4353 111.45 10.4066 111.435 10.3491 111.406L10.192 111.327C9.41979 110.938 8.49721 110.393 7.66103 109.578C6.83794 108.775 6.30306 107.882 6.06929 107.509C4.74829 105.4 5.377 102.613 7.47669 101.285C7.78018 101.093 8.09779 100.942 8.42309 100.831C9.64252 100.416 10.2522 100.208 10.4216 99.9589C10.5909 99.7094 10.5705 99.2767 10.5296 98.4113C10.4252 96.1988 10.3137 93.7877 10.2009 91.3071C10.1979 91.2399 10.1334 91.1945 10.0691 91.2134C8.66277 91.6259 7.26078 92.0626 6.476 92.2772C6.26066 92.3361 6.0166 92.3992 5.77961 92.4506C5.66192 92.4761 5.11907 92.6003 4.49803 92.5916C4.30807 92.5889 3.9773 92.5738 3.58219 92.4888C3.23169 92.4132 2.48403 92.2101 1.73004 91.616C0.8326 90.9081 0.116036 89.7791 0.0124804 88.3862C-0.0750658 87.2001 0.319084 86.3112 0.536233 85.9029C0.946258 85.1326 1.48616 84.6681 1.59252 84.5746C1.79531 84.3962 1.98442 84.2598 2.10164 84.1779C3.2098 83.4038 5.07793 82.3662 8.41659 81.2283C9.05878 81.0094 9.37987 80.9 9.5491 80.6515C9.71832 80.403 9.70383 80.0713 9.67485 79.4078C9.52243 75.9183 9.38269 72.7244 9.28203 70.2362L9.2791 70.2038C9.21042 68.1338 9.16436 66.5191 9.13317 65.2596C9.11766 64.6332 9.1099 64.32 8.93584 64.0885C8.76177 63.8569 8.4665 63.7645 7.87595 63.5796C7.306 63.4011 6.80792 63.2481 6.37359 63.1184C4.63314 62.5985 4.14024 62.5069 4.16739 62.5101C1.70823 62.1759 -0.0182179 59.902 0.313858 57.4318C0.647199 54.963 2.91151 53.2316 5.36997 53.5643ZM35.2619 88.9769C30.4829 88.5636 24.557 88.2196 21.2025 88.6742C21.0177 88.6993 20.8328 88.7258 20.6477 88.7536C19.917 88.8635 19.5517 88.9184 19.3322 89.1864C19.1128 89.4544 19.13 89.8341 19.1645 90.5936C19.3774 95.2852 19.5845 99.7472 19.7512 103.104C19.767 103.422 19.7831 103.729 19.799 104.025C19.8313 104.628 19.8474 104.929 20.0231 105.153C20.1987 105.378 20.4794 105.463 21.0407 105.632C23.8795 106.49 27.2945 107.229 31.8736 107.515C35.7916 107.76 39.2298 107.949 42.0707 107.965C45.0338 107.98 46.8514 107.793 47.7647 107.515C49.8755 106.872 51.9357 106.136 53.5728 105.378C54.7285 104.843 55.376 104.43 55.6926 104.206C55.8141 104.12 55.8748 104.077 55.9342 104.015C55.9935 103.953 56.0342 103.891 56.1157 103.765C56.4408 103.264 56.6703 102.735 56.768 102.222C56.8704 101.683 56.855 101.049 56.4929 100.253C55.8752 98.8971 55.2405 97.7283 54.2604 96.6149C53.2897 95.5125 51.8269 94.2939 49.4003 93.1059C46.1051 91.4928 42.0273 89.5621 35.2619 88.9769ZM18.2619 69.8718L18.5403 76.3454C18.5835 77.349 18.6051 77.8508 18.939 78.1072C19.273 78.3636 19.7616 78.2527 20.7387 78.031C23.8485 77.3252 27.036 76.6184 29.5387 76.0403C30.8291 75.7422 32.0677 75.4486 33.2567 75.1564C35.5564 74.5913 36.7063 74.3088 36.7306 73.6264C36.7549 72.9439 35.6195 72.577 33.3488 71.8431C29.2452 70.5168 24.6297 69.0343 20.6007 67.7266C19.4928 67.3671 18.9388 67.1873 18.5659 67.4693C18.193 67.7513 18.2119 68.3342 18.2497 69.5001C18.2537 69.6222 18.2577 69.7461 18.2619 69.8718Z" fill="white"/>
<path fill-rule="evenodd" clip-rule="evenodd" d="M67.4414 59.2901C75.5598 58.9633 82.6819 59.9094 86.1745 61.0548C87.7616 61.5753 89.198 62.2835 90.4606 63.3183C91.7393 64.3664 92.6437 65.5901 93.354 66.8678C94.9002 69.6494 94.5541 72.8393 94.1839 74.7136C93.7713 76.8017 93.0289 78.7033 92.4814 79.8116C91.5827 81.6304 90.1398 82.9612 88.886 83.9032C88.8262 83.9481 88.7661 83.9927 88.7055 84.0369C87.7998 84.6995 87.347 85.0308 87.3188 85.4453C87.2906 85.8598 87.6743 86.2316 88.4416 86.975C88.549 87.0791 88.6574 87.1845 88.7666 87.2912C91.4951 89.9572 94.6025 93.8142 97.4184 97.3717C100.328 101.048 102.991 104.714 104.24 106.406C104.55 106.826 104.769 107.122 104.916 107.317C104.962 107.377 105 107.428 105.03 107.467C105.044 107.484 105.057 107.503 105.07 107.519L105.092 107.547L105.09 107.545C105.115 107.577 105.126 107.594 105.126 107.594L105.192 107.677C105.2 107.688 105.225 107.718 105.252 107.755C105.258 107.764 105.305 107.829 105.36 107.911C105.376 107.936 105.405 107.983 105.439 108.038C105.465 108.079 105.537 108.197 105.618 108.355C105.662 108.443 105.767 108.676 105.826 108.822C105.909 109.062 106.07 109.796 106.126 110.396C106.135 110.49 106.139 110.537 106.132 110.618C106.124 110.7 106.114 110.737 106.093 110.811C105.673 112.314 103.66 114.504 101.934 115.034C101.827 115.067 101.773 115.084 101.668 115.089C101.563 115.095 101.501 115.083 101.378 115.06C100.616 114.913 99.7274 114.572 99.4619 114.413C99.0785 114.162 98.8159 113.893 98.8054 113.882C98.7291 113.808 98.6705 113.747 98.6434 113.718C98.5871 113.657 98.5427 113.607 98.5268 113.588C98.4906 113.546 98.4618 113.51 98.4529 113.499C98.4301 113.471 98.4104 113.446 98.4018 113.435C98.3861 113.415 98.3671 113.387 98.3421 113.355L98.325 113.334C98.2789 113.276 98.1941 113.17 98.0891 113.043C97.9627 112.89 97.8489 112.729 97.7452 112.565C97.6263 112.405 97.4876 112.223 97.3331 112.014C96.0361 110.256 93.4886 106.746 90.6993 103.222C87.816 99.5795 85.0658 96.1887 82.8178 93.9923C80.7935 92.0144 79.1608 90.5505 78.0031 89.5663C77.6177 89.2387 77.0367 89.5242 77.0367 90.0343V110.889C77.0367 113.601 75.0821 115.8 72.6711 115.8C70.2601 115.8 68.3055 113.601 68.3054 110.889V68.9614C68.3054 68.668 68.0658 68.4305 67.7768 68.4421C65.4609 68.5353 63.8992 68.6177 62.8938 68.6757C62.3908 68.7047 62.0239 68.7284 61.7598 68.7449C61.5961 68.7551 61.2578 68.7766 61.0293 68.7766C58.6185 68.7765 56.664 66.7267 56.6637 64.1977C56.6639 61.6686 58.6185 59.616 61.0293 59.6159C60.9207 59.6159 60.8796 59.6211 61.2396 59.5986C61.5003 59.5823 61.8875 59.5569 62.4135 59.5265C63.4682 59.4657 65.0787 59.3852 67.4414 59.2901ZM77.0367 78.5681C77.0367 79.1341 77.5975 79.5267 78.1139 79.3127L78.1367 79.3041C79.2363 78.8554 80.1169 78.504 81.0443 78.1132C82.1728 77.5306 83.1029 76.9798 83.8012 76.4552C84.2702 76.1029 84.5184 75.8495 84.6373 75.7123C84.667 75.6781 84.6818 75.661 84.7157 75.6085C84.7496 75.556 84.7631 75.5266 84.7903 75.4678C85.0347 74.9385 85.4251 73.9129 85.6345 72.8538C85.7453 72.2923 85.7781 71.8511 85.7652 71.5505C85.7633 71.5063 85.7678 71.6115 85.7678 71.6115C85.7618 71.5034 85.6955 71.289 85.6395 71.1968C85.6395 71.1968 85.6636 71.2352 85.6528 71.218C85.4365 70.8711 85.2588 70.6773 85.0859 70.5355C84.8564 70.3474 84.4337 70.0812 83.5682 69.7974C82.6415 69.4936 81.0419 69.1555 78.9406 68.886C78.0657 68.7738 77.6282 68.7177 77.3325 68.9822C77.0367 69.2467 77.0367 69.704 77.0367 70.6185V78.5681Z" fill="white"/>
<path d="M142.473 59.6122C146.596 58.3701 149.984 57.9962 152.842 58.4504C155.848 58.9286 157.966 60.2756 159.515 61.86C160.239 62.6 160.799 63.3496 161.215 63.9355C161.394 64.1883 161.531 64.383 161.644 64.5448C161.813 64.7864 161.897 64.9071 162.006 64.9903C162.115 65.0734 162.31 65.1424 162.701 65.2802C164.393 65.8775 165.622 67.5129 165.649 69.4557C165.683 71.9308 163.755 73.9672 161.346 74.0038C158.179 74.0504 156.305 72.1017 155.317 70.8335C154.9 70.2973 154.397 69.5518 154.161 69.2192C153.845 68.7746 153.599 68.4638 153.356 68.215C152.971 67.8213 152.494 67.4675 151.506 67.3101C150.368 67.1294 148.354 67.1839 144.932 68.215C142.876 68.8344 141.911 70.203 141.621 71.7618C141.303 73.4697 141.789 75.6339 143.329 77.4017C144.205 78.4067 146.164 79.1037 149.4 79.3604C150.912 79.4803 152.269 79.4851 153.689 79.5327C154.34 79.5545 155.063 79.5891 155.724 79.6699C156.185 79.7264 157.072 79.85 157.966 80.2595L158.217 80.3856C158.279 80.4163 158.309 80.4316 158.341 80.4445C158.348 80.4474 158.355 80.4502 158.362 80.4529C158.394 80.4648 158.427 80.4743 158.492 80.4931C159.308 80.7845 163.261 82.4568 165.885 85.7826C169.274 90.0794 170.749 96.6136 168.491 106.313C167.199 111.861 162.676 116.727 156.068 116.422C154.257 116.339 152.4 116.166 150.491 115.549C148.529 114.915 146.749 113.892 144.898 112.4C140.974 109.236 140.046 104.874 139.603 101.713C139.331 99.7742 139.301 98.9461 139.06 97.4681C138.863 96.2603 138.629 95.487 138.344 94.9488C137.19 92.7746 137.969 90.0505 140.086 88.8653C142.203 87.6807 144.855 88.4835 146.009 90.6576C146.972 92.4734 147.41 94.3778 147.672 95.9851C147.89 97.3229 148.109 99.4549 148.246 100.434C148.621 103.108 149.153 104.427 150.289 105.344C151.497 106.317 152.355 106.752 153.112 106.996C153.921 107.257 154.871 107.39 156.46 107.463C158.01 107.534 159.461 106.535 159.999 104.229C161.847 96.2902 160.262 92.9015 159.1 91.4283C157.743 89.7076 156.574 89.5047 154.916 88.7062C154.764 88.6332 154.688 88.5966 154.609 88.5757C154.531 88.5549 154.462 88.5501 154.326 88.5406C154.089 88.5242 153.788 88.5103 153.405 88.4974C152.279 88.4597 150.499 88.4422 148.729 88.3019C145.399 88.0377 140.192 87.2508 136.82 83.3801C133.566 79.6431 132.187 74.6773 133.043 70.0775C133.926 65.3285 137.172 61.2102 142.473 59.6122Z" fill="white"/>
<path fill-rule="evenodd" clip-rule="evenodd" d="M116.021 57.7302C117.65 57.3853 118.921 58.0096 119.534 58.4049C120.16 58.8092 120.619 59.2968 120.907 59.6361C121.497 60.3341 122.076 61.2542 122.666 62.2975C125.026 66.4752 129.435 76.2768 132.079 82.7613C136.052 92.5038 137.023 98.5963 137.747 102.588C138.139 104.442 138.312 105.608 138.386 106.853C138.394 106.911 138.398 106.94 138.403 106.966C138.409 106.997 138.413 107.014 138.422 107.045C138.429 107.07 138.443 107.108 138.469 107.183C139.254 109.405 138.171 111.887 135.99 112.79C133.754 113.714 131.209 112.63 130.306 110.367C129.923 109.408 129.766 108.522 129.692 107.735L129.683 107.637L129.678 107.542C129.642 106.849 129.562 106.147 129.189 104.393L129.175 104.327L129.166 104.263C128.94 103.02 128.694 101.617 128.347 99.9831C128.306 99.7899 128.286 99.6933 128.239 99.5965C128.192 99.4996 128.136 99.4315 128.024 99.2954C127.789 99.0104 127.424 98.5989 126.881 98.0666C125.827 97.0343 124.284 95.728 122.189 94.2413C122.124 94.1951 122.092 94.172 122.056 94.1514C122.02 94.1308 121.984 94.1143 121.912 94.0812C121.23 93.7705 120.565 93.4809 119.922 93.213C118.955 92.81 118.471 92.6085 118.092 92.8474C117.712 93.0862 117.675 93.6266 117.6 94.7073C117.384 97.8451 117.189 100.714 117.044 102.868C116.619 109.177 116.615 109.233 116.612 109.283C116.461 111.724 114.389 113.588 111.982 113.447C109.575 113.305 107.744 111.211 107.895 108.77C107.9 108.686 107.909 108.59 108.333 102.305C108.495 99.8939 108.72 96.5565 108.971 92.9382C109.011 92.3512 109.032 92.0578 108.933 91.8477C108.835 91.6377 108.498 91.3963 107.823 90.9135C107.469 90.6597 107.147 90.347 106.872 89.9757C105.427 88.0243 105.822 85.244 107.753 83.7705C108.074 83.5258 108.406 83.2996 108.753 83.0967C109.254 82.8029 109.505 82.656 109.62 82.4705C109.735 82.285 109.755 82.0337 109.793 81.5312C109.946 79.5142 110.095 77.6247 110.234 75.9852C111.047 66.4251 111.879 63.8661 112.141 62.5051C112.158 62.4154 112.158 62.4106 112.201 62.1678C112.229 62.0053 112.281 61.7042 112.368 61.3806C112.444 61.0993 112.621 60.5006 113.011 59.8725C113.413 59.2247 114.344 58.0856 116.021 57.7302ZM118.937 76.7061C118.807 78.2331 118.667 79.9836 118.523 81.8548C118.475 82.4906 118.45 82.8085 118.598 83.0531C118.608 83.0704 118.619 83.0864 118.63 83.1029C118.793 83.337 119.075 83.4343 119.638 83.6291C121.323 84.2125 122.166 84.5042 122.55 84.1279C122.575 84.1031 122.597 84.0786 122.62 84.051C122.957 83.6314 122.619 82.85 121.944 81.287C121.268 79.7209 120.558 78.1129 119.851 76.5476C119.646 76.0923 118.979 76.2071 118.937 76.7061Z" fill="white"/>
<path d="M172.527 55.3946C173.602 55.3767 174.684 55.6205 174.937 55.6656C178.165 56.2422 180.185 58.8877 181.653 61.0432C182.127 61.7383 182.527 62.4281 182.872 63.0813C183.004 63.3314 183.354 63.3462 183.509 63.1107C184.066 62.2687 184.893 61.1745 186.042 60.4492C187.897 59.2783 190.17 59.4832 191.459 59.6851C192.475 59.8443 193.475 60.406 194.097 61.4469C194.635 62.3488 194.692 63.2902 194.665 63.9123C194.613 65.1366 194.16 66.4515 193.704 67.5425C192.743 69.8454 191.141 72.6164 189.725 74.9184C189.543 75.2154 189.333 75.4907 189.106 75.7459C186.942 78.1709 185.792 79.3821 185.363 79.9327C184.951 80.5168 184.294 81.1802 183.308 81.4753C182.669 81.6663 181.93 81.6848 181.199 81.4292C180.482 81.1783 179.946 80.725 179.573 80.2614C177.798 78.0515 175.376 74.2796 172.473 71.2679C168.759 67.4147 168.021 64.0867 167.528 61.9371C167.41 61.4264 167.308 60.7343 167.351 59.9879C167.393 59.2742 167.589 58.177 168.394 57.2284L168.645 56.9574C169.899 55.6762 171.471 55.4123 172.527 55.3946Z" fill="white"/>
</svg>
