<svg width="250" height="120" viewBox="0 0 250 120" fill="none" xmlns="http://www.w3.org/2000/svg">
<path d="M51.037 37.68V15.696H48.1481V11.232H51.037V9.36C51.037 7.824 51.2148 6.512 51.5704 5.424C51.9556 4.336 52.5185 3.44 53.2593 2.736C54.0296 2 54.9926 1.472 56.1481 1.152C57.3333 0.8 58.7259 0.624001 60.3259 0.624001V5.184C59.3185 5.184 58.5037 5.328 57.8815 5.616C57.2593 5.872 56.8148 6.304 56.5481 6.912C56.2815 7.52 56.1481 8.336 56.1481 9.36V11.232H60.6815V15.696H56.1481V37.68H51.037Z" fill="#232324"/>
<path d="M73.8829 38.016C71.8977 38.016 70.0903 37.68 68.4606 37.008C66.8606 36.336 65.4829 35.392 64.3273 34.176C63.2014 32.96 62.3273 31.552 61.7051 29.952C61.1125 28.32 60.8162 26.544 60.8162 24.624C60.8162 22.544 61.1569 20.672 61.8384 19.008C62.5495 17.312 63.4977 15.856 64.6829 14.64C65.8977 13.424 67.2903 12.496 68.8606 11.856C70.431 11.216 72.0755 10.896 73.794 10.896C75.3347 10.896 76.7421 11.12 78.0162 11.568C79.2903 12.016 80.3866 12.64 81.3051 13.44C82.2532 14.24 82.9792 15.168 83.4829 16.224C83.9866 17.28 84.2384 18.416 84.2384 19.632C84.2384 21.328 83.7792 22.736 82.8606 23.856C81.9421 24.976 80.7421 25.856 79.2607 26.496C77.7792 27.136 76.1495 27.568 74.3718 27.792C72.594 28.016 70.831 28.08 69.0829 27.984C68.7866 27.952 68.4162 27.936 67.9718 27.936C67.5273 27.904 67.1273 27.888 66.7718 27.888C66.4458 27.856 66.2681 27.84 66.2384 27.84C66.4458 28.896 66.9051 29.856 67.6162 30.72C68.3569 31.552 69.2755 32.208 70.3718 32.688C71.4681 33.168 72.6384 33.408 73.8829 33.408C74.8903 33.408 75.8829 33.216 76.8606 32.832C77.8681 32.448 78.7866 31.92 79.6162 31.248C80.4458 30.576 81.1421 29.808 81.7051 28.944L85.4829 31.872C84.5051 33.28 83.394 34.448 82.1495 35.376C80.9347 36.272 79.631 36.944 78.2384 37.392C76.8458 37.808 75.394 38.016 73.8829 38.016ZM69.5273 23.616C70.6236 23.616 71.7347 23.568 72.8606 23.472C73.9866 23.344 75.0236 23.136 75.9718 22.848C76.9495 22.528 77.7347 22.096 78.3273 21.552C78.9199 21.008 79.2162 20.304 79.2162 19.44C79.2162 18.704 78.994 18.048 78.5495 17.472C78.1347 16.864 77.5421 16.384 76.7718 16.032C76.0014 15.68 75.0977 15.504 74.0606 15.504C72.5199 15.504 71.1421 15.872 69.9273 16.608C68.7125 17.344 67.7495 18.32 67.0384 19.536C66.3569 20.752 65.9866 22.064 65.9273 23.472C66.3421 23.504 66.8606 23.536 67.4829 23.568C68.1051 23.6 68.7866 23.616 69.5273 23.616Z" fill="#232324"/>
<path d="M87.4891 37.68V11.232H92.5558V37.68H87.4891ZM90.0669 7.728C89.0002 7.728 88.0965 7.36 87.3558 6.624C86.615 5.888 86.2447 4.976 86.2447 3.888C86.2447 2.8 86.615 1.888 87.3558 1.152C88.0965 0.384 89.0002 0 90.0669 0C91.1039 0 91.9928 0.384 92.7336 1.152C93.5039 1.888 93.8891 2.8 93.8891 3.888C93.8891 4.976 93.5039 5.888 92.7336 6.624C91.9928 7.36 91.1039 7.728 90.0669 7.728Z" fill="#232324"/>
<path d="M105.021 38.016C103.154 38.016 101.598 37.328 100.354 35.952C99.1096 34.576 98.4874 32.704 98.4874 30.336V15.696H94.7096V11.232H109.554V15.696H103.598V30.672C103.598 31.568 103.806 32.208 104.221 32.592C104.665 32.976 105.139 33.168 105.643 33.168C106.087 33.168 106.487 33.088 106.843 32.928C107.198 32.768 107.539 32.512 107.865 32.16L110.487 35.568C109.658 36.432 108.813 37.056 107.954 37.44C107.095 37.824 106.117 38.016 105.021 38.016ZM96.5318 13.296V11.232C97.1541 11.232 97.6281 11.04 97.954 10.656C98.3096 10.272 98.4874 9.744 98.4874 9.072V4.656H103.598V8.16C103.598 8.608 103.495 9.056 103.287 9.504C103.08 9.92 102.784 10.288 102.398 10.608C102.043 10.896 101.643 11.104 101.198 11.232L96.5318 13.296Z" fill="#232324"/>
<path d="M122.679 38.016C120.368 38.016 118.279 37.456 116.413 36.336C114.576 35.216 113.109 33.632 112.013 31.584C110.946 29.536 110.413 27.152 110.413 24.432C110.413 21.68 110.961 19.296 112.057 17.28C113.183 15.264 114.694 13.696 116.591 12.576C118.487 11.456 120.591 10.896 122.902 10.896C125.242 10.896 127.346 11.456 129.213 12.576C131.109 13.696 132.605 15.264 133.702 17.28C134.828 19.296 135.391 21.68 135.391 24.432C135.391 27.152 134.813 29.536 133.657 31.584C132.531 33.632 131.005 35.216 129.079 36.336C127.153 37.456 125.02 38.016 122.679 38.016ZM122.679 33.264C123.953 33.264 125.153 32.944 126.279 32.304C127.435 31.632 128.368 30.64 129.079 29.328C129.82 28.016 130.191 26.384 130.191 24.432C130.191 22.448 129.835 20.816 129.124 19.536C128.413 18.224 127.494 17.248 126.368 16.608C125.272 15.968 124.087 15.648 122.813 15.648C121.539 15.648 120.353 15.968 119.257 16.608C118.161 17.248 117.272 18.224 116.591 19.536C115.909 20.816 115.568 22.448 115.568 24.432C115.568 26.384 115.894 28.016 116.546 29.328C117.198 30.64 118.057 31.632 119.124 32.304C120.22 32.944 121.405 33.264 122.679 33.264Z" fill="#232324"/>
<path d="M146.611 37.68V11.232H151.678V16.752C152.063 15.632 152.67 14.64 153.5 13.776C154.33 12.88 155.278 12.176 156.344 11.664C157.441 11.152 158.537 10.896 159.633 10.896C161.5 10.896 163.13 11.344 164.522 12.24C165.944 13.104 167.041 14.368 167.811 16.032C168.611 17.696 169.011 19.712 169.011 22.08V37.68H163.989V23.376C163.989 20.976 163.426 19.088 162.3 17.712C161.174 16.336 159.692 15.648 157.855 15.648C156.67 15.648 155.604 16 154.655 16.704C153.737 17.408 153.011 18.384 152.478 19.632C151.944 20.848 151.678 22.256 151.678 23.856V37.68H146.611Z" fill="#232324"/>
<path d="M183.429 38.016C181.118 38.016 179.029 37.456 177.163 36.336C175.326 35.216 173.859 33.632 172.763 31.584C171.696 29.536 171.163 27.152 171.163 24.432C171.163 21.68 171.711 19.296 172.807 17.28C173.933 15.264 175.444 13.696 177.34 12.576C179.237 11.456 181.341 10.896 183.652 10.896C185.992 10.896 188.096 11.456 189.963 12.576C191.859 13.696 193.355 15.264 194.452 17.28C195.578 19.296 196.141 21.68 196.141 24.432C196.141 27.152 195.563 29.536 194.407 31.584C193.281 33.632 191.755 35.216 189.829 36.336C187.903 37.456 185.77 38.016 183.429 38.016ZM183.429 33.264C184.703 33.264 185.903 32.944 187.029 32.304C188.185 31.632 189.118 30.64 189.829 29.328C190.57 28.016 190.941 26.384 190.941 24.432C190.941 22.448 190.585 20.816 189.874 19.536C189.163 18.224 188.244 17.248 187.118 16.608C186.022 15.968 184.837 15.648 183.563 15.648C182.289 15.648 181.103 15.968 180.007 16.608C178.911 17.248 178.022 18.224 177.34 19.536C176.659 20.816 176.318 22.448 176.318 24.432C176.318 26.384 176.644 28.016 177.296 29.328C177.948 30.64 178.807 31.632 179.874 32.304C180.97 32.944 182.155 33.264 183.429 33.264Z" fill="#232324"/>
<path d="M45.2274 101.129C45.2274 113.055 38.5336 119.017 25.1461 119.017H0V57.9828H24.7906C31.4252 57.9828 36.3122 59.2933 39.4518 61.9142C42.6506 64.5351 44.25 68.5647 44.25 74.0031C44.25 79.4415 42.1767 83.6349 38.0301 86.5835V86.9766C42.8283 89.4009 45.2274 94.1186 45.2274 101.129ZM21.503 106.83C23.1024 106.83 24.1687 106.47 24.7018 105.749C25.2349 104.963 25.5015 103.357 25.5015 100.933C25.5015 98.5086 25.2053 96.805 24.6129 95.8222C24.0798 94.7738 23.0431 94.2496 21.503 94.2496H18.9262V106.83H21.503ZM21.5918 83.4384C22.6581 83.4384 23.4282 83.0452 23.9021 82.259C24.4352 81.4727 24.7018 80.1295 24.7018 78.2293C24.7018 76.2637 24.4352 74.8549 23.9021 74.0031C23.4282 73.1513 22.6285 72.7254 21.503 72.7254H18.9262V83.4384H21.5918Z" fill="#009440"/>
<path d="M92.8073 77.6396C92.8073 81.571 92.2149 84.7161 91.0302 87.0749C89.9047 89.3682 88.1276 91.3994 85.6989 93.1685L93.9624 119.017H74.3254L68.8164 97.9844H67.3947V119.017H49.1793V57.9828H72.726C79.5975 57.9828 84.6622 59.5881 87.9203 62.7988C91.1783 65.9438 92.8073 70.8908 92.8073 77.6396ZM69.2606 85.9938C70.6231 85.9938 71.5709 85.5679 72.104 84.7161C72.6964 83.7988 72.9926 82.2262 72.9926 79.9984C72.9926 77.7707 72.6964 76.2309 72.104 75.3791C71.5116 74.5273 70.5935 74.1014 69.3495 74.1014H67.0393V85.9938H69.2606Z" fill="#FFCB00"/>
<path d="M144.83 119.017H126.17L124.393 109.582H114.53L112.664 119.017H94.8045L106.267 57.9828H133.368L144.83 119.017ZM123.06 96.9033L119.684 76.4602H119.329L115.863 96.9033H123.06Z" fill="#302681"/>
<path d="M144.872 77.5413C144.872 71.0546 146.649 66.0094 150.204 62.4056C153.758 58.8019 158.675 57 164.954 57C171.292 57 177.808 57.6552 184.502 58.9657L182.458 76.2637C175.054 74.6256 170.196 73.8066 167.886 73.8066C165.576 73.8066 164.421 74.5928 164.421 76.1654C164.421 76.7551 164.598 77.181 164.954 77.4431C165.309 77.6396 165.576 77.8034 165.753 77.9345C165.931 78.0655 166.257 78.2293 166.731 78.4259C167.264 78.6225 167.679 78.819 167.975 79.0156C168.33 79.1466 169.396 79.6381 171.174 80.4899C173.01 81.2761 174.372 81.9314 175.261 82.4555C176.209 82.9142 177.482 83.7005 179.082 84.8144C183.702 88.156 186.012 93.0702 186.012 99.5569C186.012 106.044 184.265 111.089 180.77 114.693C177.275 118.231 172.24 120 165.665 120C159.148 120 152.751 119.115 146.472 117.346L147.716 100.736C155.653 102.964 161.014 104.078 163.799 104.078C165.635 104.078 166.553 103.357 166.553 101.916C166.553 101.261 166.316 100.736 165.842 100.343C165.428 99.9501 164.776 99.5242 163.887 99.0655C163.058 98.6069 161.814 98.0172 160.155 97.2964C158.497 96.5101 157.105 95.8549 155.979 95.3307C154.854 94.741 153.521 93.8565 151.981 92.6771C147.242 89.0733 144.872 84.0281 144.872 77.5413Z" fill="#FFCB00"/>
<path d="M208.884 119.017H190.135V57.9828H208.884V119.017Z" fill="#009440"/>
<path d="M248.756 119.017H215.613V57.9828H234.628V103.193H250L248.756 119.017Z" fill="#009440"/>
</svg>
