<svg width="250" height="120" viewBox="0 0 250 120" fill="none" xmlns="http://www.w3.org/2000/svg">
<path d="M39.8148 37.68V11.232H44.8815V16.752C45.2667 15.632 45.8593 14.64 46.6593 13.776C47.4889 12.88 48.4222 12.176 49.4593 11.664C50.5259 11.152 51.5778 10.896 52.6148 10.896C54.9259 10.896 56.8667 11.552 58.437 12.864C60.0074 14.176 60.9852 15.92 61.3704 18.096C61.7259 16.72 62.3185 15.504 63.1481 14.448C63.9778 13.36 64.9704 12.496 66.1259 11.856C67.3111 11.216 68.5852 10.896 69.9482 10.896C72.8222 10.896 75.1333 11.856 76.8815 13.776C78.6593 15.664 79.5481 18.464 79.5481 22.176V37.68H74.5259V23.472C74.5259 21.04 73.963 19.136 72.837 17.76C71.7111 16.352 70.2296 15.648 68.3926 15.648C66.5259 15.648 65.0296 16.432 63.9037 18C62.7778 19.568 62.2148 21.552 62.2148 23.952V37.68H57.1926V23.472C57.1926 21.04 56.6296 19.136 55.5037 17.76C54.3778 16.352 52.8963 15.648 51.0593 15.648C49.8148 15.648 48.7333 16.016 47.8148 16.752C46.8963 17.456 46.1704 18.432 45.637 19.68C45.1333 20.928 44.8815 22.352 44.8815 23.952V37.68H39.8148Z" fill="#232324"/>
<path d="M93.1065 38.016C90.9731 38.016 89.0324 37.456 87.2843 36.336C85.5657 35.184 84.188 33.6 83.1509 31.584C82.1435 29.536 81.6398 27.152 81.6398 24.432C81.6398 21.712 82.1435 19.344 83.1509 17.328C84.188 15.28 85.5657 13.696 87.2843 12.576C89.0324 11.456 90.9731 10.896 93.1065 10.896C95.1213 10.896 96.8843 11.44 98.3954 12.528C99.9065 13.584 101.003 15.056 101.684 16.944V11.232H106.795V37.68H104.529C103.699 37.68 103.018 37.392 102.484 36.816C101.951 36.24 101.684 35.504 101.684 34.608V31.92C101.003 33.808 99.9065 35.296 98.3954 36.384C96.8843 37.472 95.1213 38.016 93.1065 38.016ZM94.262 33.264C95.5361 33.264 96.7361 32.928 97.862 32.256C98.988 31.584 99.9065 30.592 100.618 29.28C101.329 27.936 101.684 26.32 101.684 24.432C101.684 22.512 101.329 20.912 100.618 19.632C99.9065 18.32 98.988 17.328 97.862 16.656C96.7361 15.984 95.5361 15.648 94.262 15.648C93.0176 15.648 91.8176 15.984 90.662 16.656C89.5361 17.328 88.6176 18.32 87.9065 19.632C87.1954 20.912 86.8398 22.512 86.8398 24.432C86.8398 26.32 87.1954 27.936 87.9065 29.28C88.6176 30.592 89.5361 31.584 90.662 32.256C91.8176 32.928 93.0176 33.264 94.262 33.264Z" fill="#232324"/>
<path d="M120.561 38.016C118.428 38.016 116.487 37.456 114.739 36.336C113.021 35.184 111.643 33.6 110.606 31.584C109.598 29.536 109.095 27.152 109.095 24.432C109.095 21.712 109.598 19.344 110.606 17.328C111.643 15.28 113.021 13.696 114.739 12.576C116.487 11.456 118.428 10.896 120.561 10.896C122.576 10.896 124.339 11.44 125.85 12.528C127.361 13.584 128.458 15.056 129.139 16.944V2.16H134.25V37.68H131.984C131.154 37.68 130.472 37.392 129.939 36.816C129.406 36.24 129.139 35.504 129.139 34.608V31.92C128.458 33.808 127.361 35.296 125.85 36.384C124.339 37.472 122.576 38.016 120.561 38.016ZM121.717 33.264C122.991 33.264 124.191 32.928 125.317 32.256C126.443 31.584 127.361 30.592 128.072 29.28C128.784 27.936 129.139 26.32 129.139 24.432C129.139 22.512 128.784 20.912 128.072 19.632C127.361 18.32 126.443 17.328 125.317 16.656C124.191 15.984 122.991 15.648 121.717 15.648C120.472 15.648 119.272 15.984 118.117 16.656C116.991 17.328 116.072 18.32 115.361 19.632C114.65 20.912 114.295 22.512 114.295 24.432C114.295 26.32 114.65 27.936 115.361 29.28C116.072 30.592 116.991 31.584 118.117 32.256C119.272 32.928 120.472 33.264 121.717 33.264Z" fill="#232324"/>
<path d="M149.616 38.016C147.631 38.016 145.824 37.68 144.194 37.008C142.594 36.336 141.216 35.392 140.061 34.176C138.935 32.96 138.061 31.552 137.438 29.952C136.846 28.32 136.55 26.544 136.55 24.624C136.55 22.544 136.89 20.672 137.572 19.008C138.283 17.312 139.231 15.856 140.416 14.64C141.631 13.424 143.024 12.496 144.594 11.856C146.164 11.216 147.809 10.896 149.527 10.896C151.068 10.896 152.475 11.12 153.75 11.568C155.024 12.016 156.12 12.64 157.038 13.44C157.987 14.24 158.712 15.168 159.216 16.224C159.72 17.28 159.972 18.416 159.972 19.632C159.972 21.328 159.513 22.736 158.594 23.856C157.675 24.976 156.475 25.856 154.994 26.496C153.512 27.136 151.883 27.568 150.105 27.792C148.327 28.016 146.564 28.08 144.816 27.984C144.52 27.952 144.15 27.936 143.705 27.936C143.261 27.904 142.861 27.888 142.505 27.888C142.179 27.856 142.001 27.84 141.972 27.84C142.179 28.896 142.638 29.856 143.35 30.72C144.09 31.552 145.009 32.208 146.105 32.688C147.201 33.168 148.372 33.408 149.616 33.408C150.624 33.408 151.616 33.216 152.594 32.832C153.601 32.448 154.52 31.92 155.35 31.248C156.179 30.576 156.875 29.808 157.438 28.944L161.216 31.872C160.238 33.28 159.127 34.448 157.883 35.376C156.668 36.272 155.364 36.944 153.972 37.392C152.579 37.808 151.127 38.016 149.616 38.016ZM145.261 23.616C146.357 23.616 147.468 23.568 148.594 23.472C149.72 23.344 150.757 23.136 151.705 22.848C152.683 22.528 153.468 22.096 154.061 21.552C154.653 21.008 154.95 20.304 154.95 19.44C154.95 18.704 154.727 18.048 154.283 17.472C153.868 16.864 153.275 16.384 152.505 16.032C151.735 15.68 150.831 15.504 149.794 15.504C148.253 15.504 146.875 15.872 145.661 16.608C144.446 17.344 143.483 18.32 142.772 19.536C142.09 20.752 141.72 22.064 141.661 23.472C142.075 23.504 142.594 23.536 143.216 23.568C143.838 23.6 144.52 23.616 145.261 23.616Z" fill="#232324"/>
<path d="M172.101 37.68V11.232H177.168V37.68H172.101ZM174.679 7.728C173.612 7.728 172.708 7.36 171.968 6.624C171.227 5.888 170.856 4.976 170.856 3.888C170.856 2.8 171.227 1.888 171.968 1.152C172.708 0.384 173.612 0 174.679 0C175.716 0 176.605 0.384 177.345 1.152C178.116 1.888 178.501 2.8 178.501 3.888C178.501 4.976 178.116 5.888 177.345 6.624C176.605 7.36 175.716 7.728 174.679 7.728Z" fill="#232324"/>
<path d="M181.41 37.68V11.232H186.477V16.752C186.862 15.632 187.47 14.64 188.299 13.776C189.129 12.88 190.077 12.176 191.144 11.664C192.24 11.152 193.336 10.896 194.433 10.896C196.299 10.896 197.929 11.344 199.321 12.24C200.744 13.104 201.84 14.368 202.61 16.032C203.41 17.696 203.81 19.712 203.81 22.08V37.68H198.788V23.376C198.788 20.976 198.225 19.088 197.099 17.712C195.973 16.336 194.492 15.648 192.655 15.648C191.47 15.648 190.403 16 189.455 16.704C188.536 17.408 187.81 18.384 187.277 19.632C186.744 20.848 186.477 22.256 186.477 23.856V37.68H181.41Z" fill="#232324"/>
<path d="M45.2274 101.129C45.2274 113.055 38.5336 119.017 25.1461 119.017H0V57.9828H24.7906C31.4252 57.9828 36.3122 59.2933 39.4518 61.9142C42.6506 64.5351 44.25 68.5647 44.25 74.0031C44.25 79.4415 42.1767 83.6349 38.0301 86.5835V86.9766C42.8283 89.4009 45.2274 94.1186 45.2274 101.129ZM21.503 106.83C23.1024 106.83 24.1687 106.47 24.7018 105.749C25.2349 104.963 25.5015 103.357 25.5015 100.933C25.5015 98.5086 25.2053 96.805 24.6129 95.8222C24.0798 94.7738 23.0431 94.2496 21.503 94.2496H18.9262V106.83H21.503ZM21.5918 83.4384C22.6581 83.4384 23.4282 83.0452 23.9021 82.259C24.4352 81.4727 24.7018 80.1295 24.7018 78.2293C24.7018 76.2637 24.4352 74.8549 23.9021 74.0031C23.4282 73.1513 22.6285 72.7254 21.503 72.7254H18.9262V83.4384H21.5918Z" fill="#009440"/>
<path d="M92.8073 77.6396C92.8073 81.571 92.2149 84.7161 91.0302 87.0749C89.9047 89.3682 88.1276 91.3994 85.6989 93.1685L93.9624 119.017H74.3254L68.8164 97.9844H67.3947V119.017H49.1793V57.9828H72.726C79.5975 57.9828 84.6622 59.5881 87.9203 62.7988C91.1783 65.9438 92.8073 70.8908 92.8073 77.6396ZM69.2606 85.9938C70.6231 85.9938 71.5709 85.5679 72.104 84.7161C72.6964 83.7988 72.9926 82.2262 72.9926 79.9984C72.9926 77.7707 72.6964 76.2309 72.104 75.3791C71.5116 74.5273 70.5935 74.1014 69.3495 74.1014H67.0393V85.9938H69.2606Z" fill="#FFCB00"/>
<path d="M144.83 119.017H126.17L124.393 109.582H114.53L112.664 119.017H94.8045L106.267 57.9828H133.368L144.83 119.017ZM123.06 96.9033L119.684 76.4602H119.329L115.863 96.9033H123.06Z" fill="#302681"/>
<path d="M144.872 77.5413C144.872 71.0546 146.649 66.0094 150.204 62.4056C153.758 58.8019 158.675 57 164.954 57C171.292 57 177.808 57.6552 184.502 58.9657L182.458 76.2637C175.054 74.6256 170.196 73.8066 167.886 73.8066C165.576 73.8066 164.421 74.5928 164.421 76.1654C164.421 76.7551 164.598 77.181 164.954 77.4431C165.309 77.6396 165.576 77.8034 165.753 77.9345C165.931 78.0655 166.257 78.2293 166.731 78.4259C167.264 78.6225 167.679 78.819 167.975 79.0156C168.33 79.1466 169.396 79.6381 171.174 80.4899C173.01 81.2761 174.372 81.9314 175.261 82.4555C176.209 82.9142 177.482 83.7005 179.082 84.8144C183.702 88.156 186.012 93.0702 186.012 99.5569C186.012 106.044 184.265 111.089 180.77 114.693C177.275 118.231 172.24 120 165.665 120C159.148 120 152.751 119.115 146.472 117.346L147.716 100.736C155.653 102.964 161.014 104.078 163.799 104.078C165.635 104.078 166.553 103.357 166.553 101.916C166.553 101.261 166.316 100.736 165.842 100.343C165.428 99.9501 164.776 99.5242 163.887 99.0655C163.058 98.6069 161.814 98.0172 160.155 97.2964C158.497 96.5101 157.105 95.8549 155.979 95.3307C154.854 94.741 153.521 93.8565 151.981 92.6771C147.242 89.0733 144.872 84.0281 144.872 77.5413Z" fill="#FFCB00"/>
<path d="M208.884 119.017H190.135V57.9828H208.884V119.017Z" fill="#009440"/>
<path d="M248.756 119.017H215.613V57.9828H234.628V103.193H250L248.756 119.017Z" fill="#009440"/>
</svg>
